<?xml version="1.0" standalone="no"?>
<!DOCTYPE svg PUBLIC "-//W3C//DTD SVG 1.1//EN" "http://www.w3.org/Graphics/SVG/1.1/DTD/svg11.dtd" >
<svg xmlns="http://www.w3.org/2000/svg">
<metadata></metadata>
<defs>
<font id="LucidaSansStdItalic" horiz-adv-x="1296" >
<font-face units-per-em="2048" ascent="1579" descent="-469" />
<missing-glyph horiz-adv-x="647" />
<glyph unicode="&#xfb01;" horiz-adv-x="1308" d="M143 -395l267 1333h-174l30 147h172l25 99q5 18 14 43.5t29 67t45.5 81.5t65.5 82.5t85.5 73.5t109 51.5t134.5 20.5q66 0 207 -29l-33 -158q-79 39 -182 39q-228 0 -303 -371h692l-217 -1085h-197l189 938h-496l-264 -1333h-199zM1167 1284l41 197h197l-39 -197h-199z " />
<glyph unicode="&#xfb02;" horiz-adv-x="1308" d="M143 -395l267 1333h-174l30 147h172l25 99q5 18 14 43.5t29 67t45.5 81.5t65.5 82.5t85.5 73.5t109 51.5t134.5 20.5q34 0 72.5 -3.5t102.5 -10.5t108 -11h196l-313 -1579h-199l189 938h-496l-264 -1333h-199zM635 1085h495l62 314q-128 57 -254 57q-228 0 -303 -371z " />
<glyph horiz-adv-x="0" />
<glyph horiz-adv-x="2048" />
<glyph unicode=" "  horiz-adv-x="647" />
<glyph unicode="&#x09;" horiz-adv-x="647" />
<glyph unicode="&#xa0;" horiz-adv-x="647" />
<glyph unicode="!" horiz-adv-x="395" d="M98 0l39 197h199l-39 -197h-199zM203 395l137 813l53 273h197l-64 -322l-176 -764h-147z" />
<glyph unicode="&#x22;" horiz-adv-x="739" d="M358 1579h197l-25 -494h-147zM702 1579h197l-25 -494h-147z" />
<glyph unicode="#" d="M162 444l24 123h265l161 346h-356l25 123h389l211 445h135l-209 -445h254l211 445h135l-209 -445h229l-24 -123h-262l-164 -346h358l-24 -123h-391l-209 -444h-138l209 444h-254l-209 -444h-137l209 444h-229zM586 567h256l162 346h-254z" />
<glyph unicode="$" d="M285 57l34 168q134 -68 299 -78l111 551q-11 9 -43 33.5t-44 34.5t-38.5 33t-38 36.5t-31.5 37t-29 43t-19.5 45t-14.5 53t-4 57.5q0 170 123.5 286t294.5 124l24 123h101l-25 -123q140 -8 318 -62l-33 -162q-165 68 -316 76l-100 -512q9 -6 41 -29.5t42.5 -31.5t39 -30 t39.5 -33t34 -33t32.5 -37t24.5 -38.5t21.5 -43.5t11.5 -45t5 -51q0 -122 -63 -223t-166.5 -159.5t-225.5 -66.5l-24 -123h-101l25 123q-177 14 -305 57zM639 1096q0 -67 31.5 -111.5t95.5 -95.5l88 444q-93 -9 -154 -75.5t-61 -161.5zM721 154q106 23 166.5 88t60.5 170 q0 76 -31.5 125t-99.5 100z" />
<glyph unicode="%" horiz-adv-x="1517" d="M150 -37l1351 1555h164l-1354 -1555h-161zM285 1008q0 85 27.5 169t76.5 152t124.5 110t164.5 42q122 0 188 -71.5t66 -195.5q0 -85 -27.5 -168.5t-76.5 -151.5t-125.5 -110.5t-165.5 -42.5q-122 0 -187 72t-65 195zM432 1018q0 -69 30.5 -117.5t94.5 -48.5q54 0 100 35 t74.5 88.5t44 110.5t15.5 106q0 178 -132 178q-67 0 -121 -61.5t-80 -140.5t-26 -150zM883 266q0 85 27.5 169t76.5 152t124.5 110t164.5 42q122 0 188 -71t66 -195q0 -85 -27.5 -168.5t-76.5 -151.5t-125.5 -110.5t-165.5 -42.5q-122 0 -187 71.5t-65 194.5zM1030 276 q0 -69 30.5 -117t94.5 -48q54 0 100 35t74.5 88.5t44 110.5t15.5 106q0 178 -132 178q-67 0 -121 -61.5t-80 -141t-26 -150.5z" />
<glyph unicode="&#x26;" horiz-adv-x="1435" d="M176 377q0 103 37.5 189.5t104.5 149t146.5 107t176.5 76.5q-19 58 -26 81.5t-16 70.5t-9 86q0 154 120 267.5t304 113.5q126 0 205 -66.5t79 -189.5q0 -82 -37.5 -155.5t-101.5 -128t-135.5 -94.5t-153.5 -69l232 -473q158 181 158 453h204q-22 -164 -94 -315t-186 -261 l151 -219h-241q-36 31 -76 98q-85 -62 -197.5 -98.5t-218.5 -36.5q-182 0 -304 117t-122 297zM385 412q0 -125 77 -207t200 -82q148 0 282 102l-258 533q-131 -40 -216 -129t-85 -217zM786 1149q0 -80 37 -197q50 15 99.5 43t93.5 65.5t71 88t27 104.5q0 57 -35 87t-92 30 q-88 0 -144.5 -66t-56.5 -155z" />
<glyph unicode="'" horiz-adv-x="444" d="M358 1579h246l-49 -543h-147z" />
<glyph unicode="(" horiz-adv-x="665" d="M199 391q0 345 190 677t488 511l-31 -147q-142 -116 -250 -316.5t-160.5 -412.5t-52.5 -404q0 -122 37 -253t110 -200l-28 -143q-100 69 -170.5 188t-101.5 246t-31 254z" />
<glyph unicode=")" horiz-adv-x="665" d="M45 -297l31 147q142 116 250 316.5t160.5 412.5t52.5 404q0 122 -37.5 253t-110.5 200l29 143q100 -69 170.5 -188t101.5 -246t31 -254q0 -345 -190 -677t-488 -511z" />
<glyph unicode="*" horiz-adv-x="962" d="M328 1130l67 148l256 -111q-14 -9 -23.5 -28t-9.5 -35q0 -3 1.5 -9.5t1.5 -9.5zM356 844l267 233q21 -41 55 -49l-203 -291zM657 1171l23 310h164l-99 -314q-18 13 -47 13q-23 0 -41 -9zM686 1026q51 -3 78 37l143 -236l-149 -86zM752 1159l307 107l24 -144l-313 -45 q6 12 6 25q0 33 -24 57z" />
<glyph unicode="+" d="M158 518l30 148h519l102 518h147l-102 -518h518l-29 -148h-518l-104 -518h-148l103 518h-518z" />
<glyph unicode="," horiz-adv-x="647" d="M174 -297l16 82q102 2 132 190l4 25h-93l50 246h247l-41 -203q-14 -72 -36 -127.5t-58 -105t-92 -77.5t-129 -30z" />
<glyph unicode="-" horiz-adv-x="641" d="M207 543l29 147h444l-29 -147h-444z" />
<glyph unicode="." horiz-adv-x="647" d="M233 0l50 246h245l-49 -246h-246z" />
<glyph unicode="/" horiz-adv-x="987" d="M-47 -297l1161 1876h174l-1161 -1876h-174z" />
<glyph unicode="0" d="M246 461q0 111 20.5 231t59.5 238.5t99.5 224t134.5 187t172 129t206 47.5q50 0 101.5 -13.5t107.5 -49t99.5 -89.5t71.5 -143.5t28 -202.5q0 -84 -13.5 -179.5t-42 -198t-69 -200t-99 -184.5t-127 -152.5t-157 -104t-185.5 -38.5q-57 0 -112.5 15.5t-109.5 53t-94.5 93 t-65.5 142.5t-25 194zM442 406q0 -127 59 -211t175 -84q75 0 141 40.5t113 106.5t85.5 153.5t62.5 178.5t40.5 184t23.5 168t7 133q0 59 -13 110t-40.5 93.5t-75 67t-111.5 24.5q-77 0 -143 -42t-112.5 -110t-84.5 -158t-61 -181.5t-38.5 -185t-21.5 -164.5t-6 -123z" />
<glyph unicode="1" d="M537 0l270 1358h-197l19 98l401 37l-297 -1493h-196z" />
<glyph unicode="2" d="M190 0l33 160q34 78 102.5 159t149.5 150t171.5 139t173.5 137.5t150 134t107.5 139.5t40.5 144q0 107 -72.5 157t-187.5 50q-187 0 -393 -121l35 176q118 47 212.5 70t200.5 23q86 0 158 -18t130.5 -55.5t92 -104t33.5 -156.5q0 -99 -38.5 -186t-102.5 -154.5 t-143.5 -129.5t-166.5 -123t-165 -121t-146 -137.5t-104 -160.5h653l-35 -172h-889z" />
<glyph unicode="3" d="M236 10l32 170q188 -69 322 -69q153 0 262 107t109 263q0 55 -19 98t-52.5 69.5t-72 45t-85.5 27t-83.5 11.5t-75.5 3h-71l28 148h136q68 0 140 24t131 64.5t96.5 100t37.5 124.5q0 48 -21.5 83t-58 54t-77 28t-85.5 9q-145 0 -317 -59l33 168q147 39 311 39 q412 0 412 -306q0 -99 -56.5 -186t-140.5 -141.5t-180 -77.5v-4q122 -21 200 -102t78 -203q0 -36 -7 -77.5t-26 -94t-47.5 -102t-77 -98t-110 -84t-150 -57.5t-192.5 -22q-175 0 -323 47z" />
<glyph unicode="4" d="M166 377l39 190l811 914h211l-183 -914h197l-39 -190h-196l-74 -377h-187l76 377h-655zM403 567h467l134 666h-9z" />
<glyph unicode="5" d="M272 0l33 172q164 -61 293 -61q87 0 157 28t113.5 70.5t72.5 96.5t40.5 103.5t11.5 94.5q0 62 -20.5 110.5t-54.5 79t-82 50t-98.5 27t-108.5 7.5q-30 0 -60.5 -3t-70.5 -8.5t-52 -6.5l144 721h778l-35 -172h-628l-76 -383h104q86 0 168.5 -27t150 -76.5t109 -127 t41.5 -169.5q0 -47 -8 -95.5t-29 -104.5t-52.5 -107t-83 -98.5t-116 -82t-156 -55t-198.5 -20.5q-148 0 -287 37z" />
<glyph unicode="6" d="M264 465q0 191 59.5 381t158.5 338.5t238.5 241t289.5 92.5q211 0 368 -62l-32 -170q-168 84 -332 84q-77 0 -147.5 -33.5t-122.5 -88t-94 -125.5t-68.5 -143t-40.5 -144q166 127 354 127q157 0 268 -98.5t111 -252.5q0 -117 -44 -233.5t-119 -208.5t-184 -149.5 t-229 -57.5q-112 0 -197 39.5t-136 109.5t-76 158.5t-25 194.5zM473 418q0 -135 62.5 -221t191.5 -86q81 0 149 44t111 113.5t66.5 149t23.5 155.5q0 101 -60 165.5t-161 64.5q-99 0 -185 -43t-142 -132.5t-56 -209.5z" />
<glyph unicode="7" d="M309 0q8 75 37.5 158t71.5 162t107.5 172.5t129 173.5t153 182.5t162.5 182t174 188.5q44 47 66 71h-739l39 191h938l-37 -178q-122 -132 -202.5 -222t-176 -201.5t-157 -193.5t-125.5 -177.5t-102.5 -175t-67.5 -165.5t-39 -168h-232z" />
<glyph unicode="8" d="M242 299q0 82 30.5 159t84.5 139t115.5 111t135.5 91q-149 138 -149 278q0 177 144.5 309t348.5 132q67 0 130.5 -15.5t120 -46.5t90.5 -86.5t34 -128.5q0 -148 -88.5 -254.5t-255.5 -187.5q56 -37 95.5 -70.5t76.5 -77.5t55.5 -97.5t18.5 -115.5q0 -108 -48.5 -199.5 t-128.5 -150.5t-179 -92t-203 -33q-83 0 -157 19t-136 57.5t-98.5 105.5t-36.5 154zM438 348q0 -109 76 -173t186 -64q80 0 152 31.5t120 94.5t48 142q0 31 -8 59.5t-18.5 51t-31.5 47t-37 40.5t-45.5 38t-46 33t-50 32.5t-46.5 30.5q-60 -36 -104 -67.5t-93 -78t-75.5 -102 t-26.5 -115.5zM655 1137q0 -79 50 -136.5t135 -113.5q315 148 315 313q0 60 -31.5 99.5t-78.5 55t-107 15.5q-113 0 -198 -62t-85 -171z" />
<glyph unicode="9" d="M211 25l33 170q168 -84 331 -84q77 0 147.5 33.5t122.5 88t94.5 125.5t69 143t40.5 144q-166 -127 -355 -127q-157 0 -268 98t-111 252q0 117 44 233.5t119 209t184 150t229 57.5q112 0 197 -39.5t136 -109.5t76 -158.5t25 -194.5q0 -191 -59.5 -381t-158 -338.5 t-238 -241t-289.5 -92.5q-212 0 -369 62zM512 907q0 -101 60 -165t161 -64q99 0 185 43t142 132.5t56 209.5q0 135 -62.5 221t-191.5 86q-81 0 -149 -44.5t-111 -113.5t-66.5 -149t-23.5 -156z" />
<glyph unicode=":" horiz-adv-x="647" d="M233 0l50 246h245l-49 -246h-246zM401 840l50 245h245l-49 -245h-246z" />
<glyph unicode=";" horiz-adv-x="647" d="M174 -297l16 82q102 2 132 190l4 25h-93l50 246h247l-41 -203q-14 -72 -36 -127.5t-58 -105t-92 -77.5t-129 -30zM344 840l49 245h246l-49 -245h-246z" />
<glyph unicode="&#x3c;" d="M172 592l1303 592l-35 -178l-944 -428l772 -431l-29 -147z" />
<glyph unicode="=" d="M121 346l31 148h1183l-28 -148h-1186zM190 690l29 148h1186l-31 -148h-1184z" />
<glyph unicode="&#x3e;" d="M55 0l35 178l944 430l-772 428l29 148l1067 -592z" />
<glyph unicode="?" horiz-adv-x="950" d="M274 0l39 197h199l-39 -197h-199zM317 1288l33 172q171 58 334 58q77 0 144 -13.5t128.5 -44.5t97.5 -90t36 -141q0 -75 -27 -140t-70.5 -115t-97 -97.5t-109.5 -97t-104 -102.5t-84 -126t-47 -156h-197q5 74 37.5 145t79 128t102 112t109.5 105.5t99 99.5t72.5 104 t27.5 109q0 48 -20.5 83t-56 53.5t-75.5 27t-86 8.5q-83 0 -157 -20.5t-169 -61.5z" />
<glyph unicode="@" horiz-adv-x="1757" d="M227 571q0 182 76 356t202 303.5t298.5 208.5t355.5 79q95 0 188.5 -25t179 -77.5t151 -125t104.5 -175.5t39 -222q0 -110 -36.5 -216t-101.5 -191t-163.5 -137t-212.5 -52q-44 0 -79.5 9t-63 36.5t-27.5 71.5q0 13 2.5 29.5t7.5 37t9 33.5t11 36.5t9 29.5l20 61h-12 q-29 -58 -67 -113t-87.5 -110t-111 -88t-123.5 -33q-92 0 -141.5 65t-49.5 160q0 33 8 81.5t27.5 111.5t47 127t71 126t95 109.5t122.5 77t151 29.5q59 0 164.5 -8t132.5 -9l-120 -606q-13 -67 -13 -88q0 -53 76 -53q125 0 228.5 131t103.5 323q0 233 -157.5 377t-393.5 144 q-156 0 -303 -67t-255 -177t-173.5 -258t-65.5 -303q0 -237 150 -370.5t393 -133.5q175 0 297 61l41 -106q-176 -78 -359 -78q-106 0 -197 24t-155.5 63.5t-116 92.5t-84 109t-54 115.5t-30 109.5t-8.5 94zM758 561q0 -23 3.5 -45t12 -45t27 -37t43.5 -14q37 0 94 50.5 t110.5 120.5t97 136.5t62.5 106.5l39 194q-90 33 -153 33q-88 0 -155.5 -48.5t-105.5 -125.5t-56.5 -160.5t-18.5 -165.5z" />
<glyph unicode="A" horiz-adv-x="1406" d="M43 0l852 1481h197l284 -1481h-200l-74 383h-653l-222 -383h-184zM532 530h541l-135 705z" />
<glyph unicode="B" horiz-adv-x="1214" d="M197 0l295 1481h366q57 0 108 -6t107.5 -24.5t97 -48t67 -81t26.5 -119.5q0 -146 -109 -266t-256 -162v-4q122 -34 203.5 -126.5t81.5 -215.5q0 -199 -145 -313.5t-386 -114.5h-456zM426 156q79 -9 139 -9q95 0 168 16.5t118 43.5t73.5 65t39.5 78t11 86q0 63 -29.5 112 t-75 77.5t-106.5 47.5t-116.5 25.5t-112.5 6.5zM559 827h96q95 0 177 36t131 89t76.5 108.5t27.5 100.5q0 36 -10.5 65t-25.5 47t-40 30.5t-45.5 19t-51.5 9.5q-30 2 -48 2q-6 0 -13 1q-14 0 -33 -1q-28 -1 -34 -1h-107z" />
<glyph unicode="C" horiz-adv-x="1390" d="M229 516q0 187 65.5 367.5t179.5 321t283 227t361 86.5q252 0 457 -50l-35 -172q-101 28 -146.5 39t-120 23t-140.5 12q-108 0 -203.5 -34t-164.5 -89.5t-126 -129.5t-93.5 -152t-61.5 -159t-35.5 -148t-10.5 -121q0 -194 106 -304t298 -110q87 0 185 20.5t157 40 t176 62.5l-31 -156q-305 -127 -557 -127q-254 0 -398.5 149.5t-144.5 403.5z" />
<glyph unicode="D" horiz-adv-x="1521" d="M197 0l295 1481h565q123 0 218.5 -29.5t167.5 -91t110 -164t38 -242.5q0 -81 -15.5 -169t-49.5 -181.5t-83.5 -180t-122.5 -164t-161 -135t-205 -91t-249 -33.5h-508zM422 147h276q110 0 204.5 30.5t163 82t124 120.5t90.5 142.5t58.5 152.5t33.5 147.5t10 129.5 q0 109 -35 184.5t-105.5 118t-162.5 60.5t-219 18h-201z" />
<glyph unicode="E" horiz-adv-x="1120" d="M197 0l295 1481h815l-31 -148h-617l-96 -487h506l-31 -148h-506l-108 -551h659l-28 -147h-858z" />
<glyph unicode="F" horiz-adv-x="1097" d="M197 0l295 1481h815l-31 -148h-617l-100 -506h510l-33 -147h-506l-135 -680h-198z" />
<glyph unicode="G" horiz-adv-x="1437" d="M229 516q0 187 65.5 367.5t179.5 321t283 227t361 86.5q252 0 457 -50l-35 -172q-101 28 -146.5 39t-120 23t-140.5 12q-108 0 -203.5 -34t-164.5 -89.5t-126 -129.5t-93.5 -152t-61.5 -159t-35.5 -148t-10.5 -121q0 -207 103 -316.5t299 -109.5q155 0 301 57l84 424h196 l-104 -526q-298 -103 -545 -103q-254 0 -398.5 149.5t-144.5 403.5z" />
<glyph unicode="H" horiz-adv-x="1505" d="M197 0l295 1481h198l-127 -629h717l125 629h197l-293 -1481h-199l139 705h-714l-140 -705h-198z" />
<glyph unicode="I" horiz-adv-x="591" d="M197 0l295 1481h198l-295 -1481h-198z" />
<glyph unicode="J" horiz-adv-x="835" d="M-41 -264l41 170q122 -56 209 -56q201 0 264 310l262 1321h197l-242 -1227q-35 -169 -84 -269q-139 -282 -440 -282q-82 0 -207 33z" />
<glyph unicode="K" horiz-adv-x="1300" d="M197 0l295 1481h198l-143 -713l4 -4l713 717h209l-717 -717l522 -764h-225l-506 764l-152 -764h-198z" />
<glyph unicode="L" horiz-adv-x="1116" d="M197 0l295 1481h198l-266 -1334h692l-31 -147h-888z" />
<glyph unicode="M" horiz-adv-x="1695" d="M197 0l295 1481h270l164 -1078h4l598 1078h266l-295 -1481h-184l244 1229l-5 4l-600 -1086h-172l-164 1086h-4l-243 -1233h-174z" />
<glyph unicode="N" horiz-adv-x="1517" d="M197 0l295 1481h198l512 -1200h4l236 1200h172l-293 -1481h-199l-512 1200h-4l-235 -1200h-174z" />
<glyph unicode="O" horiz-adv-x="1591" d="M229 516q0 187 65.5 367.5t179.5 321t283 227t361 86.5q254 0 398.5 -149.5t144.5 -405.5q0 -149 -41 -295t-120 -272.5t-185.5 -223.5t-247 -153t-295.5 -56q-254 0 -398.5 149.5t-144.5 403.5zM438 528q0 -83 23 -157t66.5 -132.5t113.5 -93t156 -34.5 q120 0 226.5 52.5t183.5 139t133 196t84 226t28 227.5q0 118 -40.5 211t-126.5 150t-206 57q-116 0 -220 -54t-179.5 -142t-131 -198.5t-83 -226t-27.5 -221.5z" />
<glyph unicode="P" horiz-adv-x="1177" d="M197 0l295 1481h450q47 0 92 -7t96.5 -27.5t89.5 -53.5t63.5 -89.5t25.5 -129.5q0 -79 -28 -161t-85.5 -158.5t-137 -136.5t-192.5 -96t-241 -36q-53 0 -111 12l-119 -598h-198zM543 741q50 -8 78 -8q85 0 156 19t119.5 49t86 71.5t59 82t35.5 84.5t18.5 76t4.5 59 q0 41 -18 70.5t-46 46.5t-71.5 26.5t-84.5 12.5t-96 3q-70 0 -125 -6z" />
<glyph unicode="Q" horiz-adv-x="1591" d="M229 516q0 187 65.5 367.5t179.5 321t283 227t361 86.5q254 0 398.5 -149.5t144.5 -405.5q0 -189 -70 -377.5t-203 -340t-301 -216.5q232 -175 543 -234l-172 -157q-285 108 -538 337q-3 0 -28 -3.5t-40 -4.5q-50 -4 -80 -4q-254 0 -398.5 149.5t-144.5 403.5zM438 528 q0 -83 23 -157t66.5 -132.5t113.5 -93t156 -34.5q120 0 226.5 52.5t183.5 139t133 196t84 226t28 227.5q0 118 -40.5 211t-126.5 150t-206 57q-116 0 -220 -54t-179.5 -142t-131 -198.5t-83 -226t-27.5 -221.5z" />
<glyph unicode="R" horiz-adv-x="1294" d="M197 0l295 1481h489q147 0 237.5 -74t90.5 -217q0 -80 -33.5 -158.5t-89.5 -140t-126 -109t-145 -73.5l353 -709h-221l-318 659h-203l-131 -659h-198zM553 807h149q78 0 143.5 23t107 60.5t72 80t46 85.5t22.5 72t7 46q0 33 -10 59t-24 42.5t-40.5 28t-45.5 17.5t-55 9 t-54 3h-56h-18q-23 0 -140 -6z" />
<glyph unicode="S" horiz-adv-x="1132" d="M135 33l33 174q215 -96 389 -96q146 0 242 73.5t96 190.5q0 57 -28.5 110t-74 96.5t-100.5 87t-110 90t-100.5 95.5t-74 112.5t-28.5 133.5q0 179 139.5 298.5t388.5 119.5q185 0 371 -64l-35 -170q-77 41 -173 63.5t-185 22.5q-81 0 -148.5 -23.5t-114.5 -80t-47 -138.5 q0 -53 28.5 -102.5t74 -91t101 -83.5t110.5 -88.5t100.5 -98t74 -120.5t28.5 -147q0 -59 -17.5 -117.5t-59.5 -116.5t-104.5 -101.5t-160.5 -71t-218 -27.5q-208 0 -397 70z" />
<glyph unicode="T" horiz-adv-x="1275" d="M281 1333l28 148h1247l-30 -148h-525l-264 -1333h-196l264 1333h-524z" />
<glyph unicode="U" horiz-adv-x="1419" d="M266 358q0 76 27 211l180 912h197l-189 -955q-18 -85 -18 -143q0 -123 69 -197.5t213 -74.5q69 0 127.5 18.5t97.5 44t72 66.5t49.5 70t31.5 72t18 55.5t8 35.5l201 1008h172l-201 -1010q-5 -25 -10.5 -49.5t-25.5 -79t-46 -100t-73.5 -99.5t-105.5 -91.5t-145.5 -63 t-189.5 -25.5q-124 0 -216 32t-143.5 88.5t-75.5 124.5t-24 150z" />
<glyph unicode="V" horiz-adv-x="1406" d="M322 1481h200l236 -1235l710 1235h185l-850 -1481h-199z" />
<glyph unicode="W" horiz-adv-x="1814" d="M348 1481h184l62 -1182h4l526 1182h189l28 -1151h5l544 1151h178l-702 -1481h-199l-28 1147h-4l-510 -1147h-197z" />
<glyph unicode="X" horiz-adv-x="1269" d="M12 0l662 772l-332 709h219l254 -545l465 545h211l-602 -705l362 -776h-217l-286 612l-525 -612h-211z" />
<glyph unicode="Y" horiz-adv-x="1245" d="M315 1481h213l269 -633l497 633h205l-641 -815l-133 -666h-197l131 666z" />
<glyph unicode="Z" horiz-adv-x="1183" d="M61 0l33 160l1020 1173h-737l29 148h983l-29 -148l-1020 -1173h815l-33 -160h-1061z" />
<glyph unicode="[" horiz-adv-x="665" d="M115 -297l372 1876h396l-31 -147h-221l-318 -1582h226l-31 -147h-393z" />
<glyph unicode="\" horiz-adv-x="987" d="M326 1579h153l439 -1876h-154z" />
<glyph unicode="]" horiz-adv-x="665" d="M39 -297l31 147h221l317 1582h-225l31 147h393l-373 -1876h-395z" />
<glyph unicode="^" d="M115 297l827 1184l356 -1184h-153l-258 850l-594 -850h-178z" />
<glyph unicode="_" horiz-adv-x="1024" d="M-27 -154h1051v-102h-1051v102z" />
<glyph unicode="`" horiz-adv-x="1171" d="M688 1579h221l140 -295h-150z" />
<glyph unicode="a" horiz-adv-x="1245" d="M172 238q0 84 24 181t67.5 194.5t109.5 187t144.5 158.5t179 110t206.5 41q81 0 164 -25h197l-215 -1085h-197l100 444h-12q-43 -75 -101 -151t-132 -150.5t-161 -121t-167 -46.5q-65 0 -113.5 41.5t-71 100t-22.5 121.5zM381 276q0 -46 20.5 -78t63.5 -32q144 0 516 504 q4 5 6 8l49 254q-66 37 -151 37q-102 0 -197.5 -67t-161.5 -169.5t-105.5 -224.5t-39.5 -232z" />
<glyph unicode="b" horiz-adv-x="1245" d="M197 0l315 1579h197l-99 -494l-100 -444h12q43 75 101 151t132 150.5t161 121t167 46.5q65 0 113.5 -41t71 -99.5t22.5 -121.5q0 -84 -24 -181t-67.5 -194.5t-109.5 -187t-144.5 -158.5t-179 -110.5t-206.5 -41.5q-81 0 -164 25h-198zM426 154q66 -37 152 -37 q79 0 151 36.5t125.5 96t97.5 134t71.5 152.5t42.5 148.5t15 124.5q0 46 -20.5 78.5t-63.5 32.5q-144 0 -516 -504q-4 -5 -6 -8z" />
<glyph unicode="c" horiz-adv-x="1030" d="M184 358q0 134 54 269t143.5 242t218 174t266.5 67q79 0 248 -33l-33 -162q-109 48 -223 48q-87 0 -163.5 -36t-130.5 -96.5t-93.5 -137.5t-58.5 -160t-19 -164q0 -109 52 -177.5t157 -68.5q81 0 188.5 37t184.5 86l-35 -172q-225 -99 -395 -99q-181 0 -271 100t-90 283z " />
<glyph unicode="d" horiz-adv-x="1245" d="M172 238q0 84 24 181t67.5 194.5t109.5 187t144.5 158.5t179 110t206.5 41q81 0 164 -25l98 494h197l-313 -1579h-197l100 444h-12q-43 -75 -101 -151t-132 -150.5t-161 -121t-167 -46.5q-65 0 -113.5 41.5t-71 100t-22.5 121.5zM381 276q0 -46 20.5 -78t63.5 -32 q144 0 516 504q4 5 6 8l49 254q-66 37 -151 37q-102 0 -197.5 -67t-161.5 -169.5t-105.5 -224.5t-39.5 -232z" />
<glyph unicode="e" horiz-adv-x="1083" d="M184 344q0 60 11.5 127.5t36.5 142t61.5 145t90.5 135t119 112t151.5 76t183.5 28.5q106 0 173.5 -55t67.5 -162q0 -79 -31.5 -148.5t-85.5 -121t-123 -93t-146.5 -68.5t-153 -42t-146.5 -19v-18q0 -99 50 -171q55 -78 163 -77q105 0 234.5 48.5t226.5 115.5l-37 -190 q-246 -134 -489 -134q-170 0 -263.5 98.5t-93.5 270.5zM414 549q70 2 149.5 23t152 57t120 94t47.5 125q0 48 -37 81.5t-84 33.5q-83 0 -161.5 -71.5t-126 -165t-60.5 -177.5z" />
<glyph unicode="f" horiz-adv-x="784" d="M143 -395l267 1333h-174l30 147h172l25 99q5 18 14 43.5t29 67t45.5 81.5t65.5 82.5t85.5 73.5t109 51.5t134.5 20.5q66 0 207 -29l-33 -158q-79 39 -182 39q-228 0 -303 -371h297l-31 -147h-295l-264 -1333h-199z" />
<glyph unicode="g" horiz-adv-x="1245" d="M104 -334l35 174q198 -100 381 -100q156 0 231 76.5t111 238.5l90 389h-12q-43 -75 -101 -151t-132 -150.5t-161 -121t-167 -46.5q-65 0 -113.5 41.5t-71 100t-22.5 121.5q0 84 24 181t67.5 194.5t109.5 187t144.5 158.5t179 110t206.5 41q81 0 164 -25h197l-213 -1077 q-40 -205 -189 -316.5t-387 -111.5q-191 0 -371 86zM381 276q0 -46 20.5 -78t63.5 -32q144 0 516 504q4 5 6 8l49 254q-66 37 -151 37q-102 0 -197.5 -67t-161.5 -169.5t-105.5 -224.5t-39.5 -232z" />
<glyph unicode="h" horiz-adv-x="1269" d="M197 0l315 1579h197l-99 -494l-100 -444h12q283 469 549 469q92 0 136 -56t44 -151q0 -71 -16 -149l-150 -754h-196l149 760q4 25 4 76q0 84 -55 84q-36 0 -85 -32.5t-94.5 -78.5t-101 -112.5t-93.5 -118.5t-82.5 -114t-59.5 -81l-76 -383h-198z" />
<glyph unicode="i" horiz-adv-x="591" d="M197 0l217 1085h196l-215 -1085h-198zM453 1284l39 197h198l-41 -197h-196z" />
<glyph unicode="j" horiz-adv-x="665" d="M-225 -389l32 168q104 -51 191 -51q219 0 287 335l202 1022h197l-195 -989q-13 -68 -33.5 -130t-62.5 -135.5t-96 -126.5t-140.5 -88.5t-191.5 -35.5q-72 0 -190 31zM526 1284l39 197h199l-39 -197h-199z" />
<glyph unicode="k" horiz-adv-x="1171" d="M197 0l315 1579h197l-314 -1579h-198zM512 578l514 507h213l-504 -493l408 -592h-246z" />
<glyph unicode="l" horiz-adv-x="591" d="M197 0l315 1579h197l-314 -1579h-198z" />
<glyph unicode="m" horiz-adv-x="1912" d="M197 0l217 1085h196l-100 -444h12q19 39 52 91t89 120.5t116.5 124t139 94.5t152.5 39q81 0 122.5 -53t41.5 -135q0 -36 -21 -129t-38 -152h12q19 39 52 91t89 120.5t116.5 124t139 94.5t152.5 39q81 0 122.5 -53t41.5 -135q0 -45 -21 -156l-154 -766h-196l151 766 q1 7 4.5 22.5t5 28t1.5 27.5q0 29 -14.5 52.5t-43.5 23.5q-20 0 -46 -13.5t-57.5 -41t-61.5 -57t-67 -73.5t-64.5 -77t-63.5 -81t-54.5 -72.5t-47.5 -64.5t-33 -45l-78 -395h-197l152 766q10 62 10 78q0 30 -14 53t-43 23q-20 0 -46 -13.5t-58 -41.5t-61.5 -56.5t-67 -73.5 t-64 -76.5t-64 -81t-55 -72.5t-48 -65t-32.5 -45l-78 -395h-198z" />
<glyph unicode="n" horiz-adv-x="1269" d="M197 0l217 1085h196l-100 -444h12q283 469 549 469q92 0 136 -56t44 -151q0 -71 -16 -149l-150 -754h-196l149 760q4 25 4 76q0 84 -55 84q-36 0 -85 -32.5t-94.5 -78.5t-101 -112.5t-93.5 -118.5t-82.5 -114t-59.5 -81l-76 -383h-198z" />
<glyph unicode="o" horiz-adv-x="1159" d="M180 344q0 60 11.5 127.5t36.5 142t61.5 145t90.5 135t119 112t151.5 76t183.5 28.5q171 0 264.5 -98.5t93.5 -270.5q0 -58 -12 -125t-38.5 -141.5t-64 -145t-92 -135t-119.5 -113.5t-150 -77.5t-179 -28.5q-170 0 -263.5 98.5t-93.5 270.5zM389 389q0 -52 8.5 -96 t28.5 -84t59 -63t93 -23q76 0 143.5 38t114.5 99t81 137t50 153t16 146q0 267 -199 267q-74 0 -139.5 -39t-111 -101t-79 -138.5t-49.5 -152.5t-16 -143z" />
<glyph unicode="p" horiz-adv-x="1245" d="M119 -395l295 1480h196l-100 -444h12q43 75 101 151t132 150.5t161 121t167 46.5q65 0 113.5 -41t71 -99.5t22.5 -121.5q0 -84 -24 -181t-67.5 -194.5t-109.5 -187t-144.5 -158.5t-179 -110.5t-206.5 -41.5q-81 0 -164 25l-80 -395h-196zM426 154q66 -37 152 -37 q79 0 151 36.5t125.5 96t97.5 134t71.5 152.5t42.5 148.5t15 124.5q0 46 -20.5 78.5t-63.5 32.5q-144 0 -516 -504q-4 -5 -6 -8z" />
<glyph unicode="q" horiz-adv-x="1245" d="M172 238q0 84 24 181t67.5 194.5t109.5 187t144.5 158.5t179 110t206.5 41q81 0 164 -25h197l-293 -1480h-199l80 395l100 444h-12q-43 -75 -101 -151t-132 -150.5t-161 -121t-167 -46.5q-65 0 -113.5 41.5t-71 100t-22.5 121.5zM381 276q0 -46 20.5 -78t63.5 -32 q144 0 516 504q4 5 6 8l49 254q-66 37 -151 37q-102 0 -197.5 -67t-161.5 -169.5t-105.5 -224.5t-39.5 -232z" />
<glyph unicode="r" horiz-adv-x="978" d="M197 0l217 1085h196l-100 -444h12q283 469 549 469h57l-45 -219q-40 16 -73 16q-42 0 -83 -16.5t-80 -50.5t-63 -59t-59 -66l-254 -332l-76 -383h-198z" />
<glyph unicode="s" horiz-adv-x="1001" d="M156 57l32 168q202 -102 344 -102q72 0 124.5 35t52.5 102q0 36 -20 73t-51.5 70.5t-69.5 69t-76.5 74t-70 78.5t-51.5 89t-20 101q0 46 21 95t62.5 95t117 75.5t172.5 29.5q157 0 305 -63l-33 -166q-82 40 -147 61t-135 21q-69 0 -117.5 -32t-48.5 -97q0 -42 37 -90.5 t89.5 -97.5t105 -102.5t89.5 -124t37 -143.5q0 -63 -22.5 -114.5t-60.5 -85.5t-89 -57.5t-106 -33.5t-113 -10q-94 0 -176.5 20t-181.5 62z" />
<glyph unicode="t" horiz-adv-x="784" d="M236 938l30 147h174l39 199l203 25l-45 -224h235l-30 -147h-234l-114 -569q-21 -122 -21 -136q0 -110 125 -110q51 0 109 20l-29 -149q-65 -19 -131 -19q-117 0 -194 59.5t-77 174.5q0 59 25 178l109 551h-174z" />
<glyph unicode="u" horiz-adv-x="1269" d="M236 182q0 72 16 150l149 753h197l-149 -759q-5 -31 -5 -76q0 -84 56 -84q36 0 85 32.5t94.5 78t101 112.5t93 118.5t82.5 113.5t60 81l76 383h198l-217 -1085h-196l100 444h-12q-283 -469 -549 -469q-92 0 -136 56t-44 151z" />
<glyph unicode="v" horiz-adv-x="1116" d="M268 1085h187l120 -852l535 852h188l-677 -1085h-199z" />
<glyph unicode="w" horiz-adv-x="1628" d="M285 1085h184l90 -819h4l373 819h197l51 -835h4l411 835h164l-536 -1085h-199l-49 819h-4l-373 -819h-199z" />
<glyph unicode="x" horiz-adv-x="1107" d="M49 0l514 567l-258 518h221l187 -374l340 374h200l-469 -516l285 -569h-221l-213 426l-387 -426h-199z" />
<glyph unicode="y" horiz-adv-x="1122" d="M201 -395l248 395l-181 1085h201l127 -847l530 847h189l-924 -1480h-190z" />
<glyph unicode="z" horiz-adv-x="1097" d="M111 0l30 147l748 791h-574l31 147h828l-29 -147l-750 -791h645l-28 -147h-901z" />
<glyph unicode="{" horiz-adv-x="665" d="M172 578l29 141h26q57 0 98.5 18.5t66 48.5t39.5 79t20.5 99t7.5 121q4 132 22 212.5t65 141t125 91.5t206 49l-31 -147q-30 -1 -55.5 -8t-44 -16.5t-34 -27t-25.5 -32t-17.5 -39.5t-11.5 -42.5t-7.5 -48t-4.5 -48t-3 -50.5q-3 -68 -10.5 -121t-25.5 -110.5t-45.5 -101 t-73.5 -82.5t-107 -64q117 -73 117 -221q0 -106 -68 -273q-8 -21 -23.5 -58.5t-23.5 -57t-14.5 -42t-6.5 -36.5q0 -30 16.5 -52t43.5 -32t54 -14.5t56 -4.5l-30 -147q-61 4 -112.5 17.5t-98.5 39.5t-74 72.5t-27 108.5q0 87 72 262q3 7 11.5 30t11.5 30.5t10.5 28t10.5 29.5 t8.5 26t7.5 27.5t5 24.5t4 25t1 22q0 58 -37 95t-94 37h-29z" />
<glyph unicode="|" horiz-adv-x="477" d="M313 -512v2048h148v-2048h-148z" />
<glyph unicode="}" horiz-adv-x="665" d="M45 -297l31 147q30 1 55.5 8t44 16.5t34 27t25.5 32t17.5 39.5t11.5 42.5t7.5 48t4.5 48t3 50.5q3 68 10.5 121t25.5 110.5t45.5 101t73.5 82.5t107 64q-117 73 -117 221q0 106 68 273q8 19 24 58t23 57.5t13.5 41.5t6.5 37q0 30 -16.5 52t-43.5 32t-54 14.5t-56 4.5 l31 147q61 -4 112.5 -17.5t98.5 -39.5t73.5 -72.5t26.5 -108.5q0 -87 -72 -262q-26 -68 -35.5 -94t-21.5 -72t-12 -77q0 -58 37 -94.5t94 -36.5h29l-29 -142h-27q-57 0 -98 -18.5t-65.5 -48t-39.5 -79.5t-20.5 -99.5t-7.5 -120.5q-4 -132 -22 -212.5t-65 -141t-125 -91.5 t-206 -49z" />
<glyph unicode="~" d="M143 444q25 131 120 230.5t222 99.5q54 0 125 -25.5t103.5 -43.5t113.5 -64q47 -26 70.5 -38.5t69 -29t77.5 -16.5q73 0 128.5 54.5t66.5 127.5h147q-15 -83 -60.5 -157t-120 -123t-158.5 -49q-17 0 -36 2.5t-34.5 5.5t-37 10.5t-34.5 11.5t-36.5 15.5t-34 16t-36 18 t-32 17.5t-33.5 19t-31 17q-111 62 -162 76q-29 8 -53 8q-73 0 -129 -54.5t-65 -128.5h-150z" />
<glyph unicode="&#xa1;" horiz-adv-x="395" d="M20 -395l64 321l176 764h150l-138 -813l-55 -272h-197zM276 889l39 196h199l-39 -196h-199z" />
<glyph unicode="&#xa2;" d="M354 565q0 165 74 322.5t205.5 271.5t292.5 152l32 170h101l-33 -160q158 -7 258 -37l-33 -160q-114 47 -256 47l-164 -833q127 16 314 117l-35 -172q-178 -78 -309 -95l-37 -188h-98l34 182q-172 3 -259 105t-87 278zM563 600q0 -48 8 -89t26 -80t52 -63.5t82 -29.5 l162 809q-75 -27 -139 -88t-105 -137.5t-63.5 -160.5t-22.5 -161z" />
<glyph unicode="&#xa3;" d="M252 0l35 172q57 17 99 44.5t66.5 56t43 75t27.5 83.5t22 101q0 2 0.5 3.5t1 3.5t0.5 4l33 172h-185l29 147h186l11 53q14 72 27.5 126.5t35.5 120.5t48 114t64.5 96t85 78.5t110 49t138.5 18.5q127 0 254 -43l-30 -162q-145 57 -256 57q-50 0 -89 -16.5t-63.5 -41.5 t-44 -65t-29.5 -76t-20 -86l-45 -223h211l-31 -147h-209l-22 -113q-17 -81 -29.5 -128.5t-38.5 -110.5t-66.5 -108.5t-97.5 -78.5v-4h602l-34 -172h-840z" />
<glyph unicode="&#xa4;" d="M84 229l309 258q-39 64 -39 170q0 206 138 353l-203 243l94 78l203 -246q142 99 272 99q77 0 135 -22t119 -72l309 258l78 -97l-309 -258q41 -56 41 -170q0 -203 -137 -352l202 -244l-94 -80l-203 248q-141 -98 -274 -98q-77 0 -134 22t-118 72l-309 -258zM502 662 q0 -92 63.5 -155t155.5 -63q94 0 178.5 55.5t134 143t49.5 178.5q0 92 -63 153.5t-156 61.5q-92 0 -176.5 -54.5t-135 -141t-50.5 -178.5z" />
<glyph unicode="&#xa5;" d="M332 346l28 148h295l21 98h-297l31 147h295l-351 742h219l275 -578l498 578h196l-639 -742h295l-29 -147h-297l-18 -98h295l-29 -148h-297l-67 -346h-197l68 346h-295z" />
<glyph unicode="&#xa6;" horiz-adv-x="477" d="M313 358h148v-716h-148v716zM313 666v716h148v-716h-148z" />
<glyph unicode="&#xa7;" d="M188 -264l37 180q209 -102 400 -102q66 0 127 21.5t105 70.5t44 117q0 52 -31.5 92.5t-81.5 68t-110 53t-120.5 55t-110.5 64.5t-81.5 90.5t-31.5 126.5q0 99 58.5 189t148.5 158q-49 37 -75 96t-26 125q0 42 12.5 87.5t49 99t93.5 94.5t155.5 68.5t224.5 27.5 q166 0 309 -33l-33 -170q-182 55 -338 55q-51 0 -99 -11t-92 -34t-70.5 -64.5t-26.5 -95.5q0 -48 30 -87.5t78.5 -69t106.5 -57.5t116 -60t106.5 -69t78.5 -92t30 -122q0 -184 -188 -336q53 -37 84 -94t31 -119q0 -41 -11 -86.5t-46 -102t-89.5 -100.5t-152.5 -74t-224 -30 q-196 0 -387 70zM518 621q0 -36 12 -61.5t44 -50.5t79 -50.5t125 -64.5q59 -29 92 -46q46 36 87.5 100.5t41.5 114.5q0 30 -14 56.5t-38.5 49t-63.5 47t-84.5 48t-106.5 53.5q-28 14 -43 21q-53 -43 -92 -101t-39 -116z" />
<glyph unicode="&#xa8;" horiz-adv-x="1159" d="M586 1284l35 172h172l-35 -172h-172zM981 1284l35 172h172l-35 -172h-172z" />
<glyph unicode="&#xa9;" horiz-adv-x="1757" d="M246 739q0 127 39 246t111 214.5t168 167.5t214.5 111.5t245.5 39.5q211 0 389.5 -104.5t282.5 -284t104 -390.5q0 -158 -61.5 -301.5t-165.5 -247.5t-247.5 -165.5t-301.5 -61.5t-302.5 61.5t-248.5 165.5t-165.5 247.5t-61.5 301.5zM356 739q0 -181 89.5 -334 t243.5 -242t335 -89t334 89t242.5 242.5t89.5 333.5q0 181 -89.5 335t-242.5 243.5t-334 89.5q-182 0 -335.5 -89.5t-243 -243t-89.5 -335.5zM616 639q0 36 7.5 80t26 96.5t45.5 103t69 98t93.5 83t122.5 57t153 21.5q127 0 262 -50l-23 -110q-125 61 -237 61 q-81 0 -151.5 -37.5t-118 -98t-74.5 -136.5t-27 -154q0 -114 65 -179.5t179 -65.5q124 0 254 55l-25 -123q-134 -43 -262 -43q-173 0 -266 90.5t-93 251.5z" />
<glyph unicode="&#xaa;" horiz-adv-x="802" d="M248 909q0 93 37 199t98 197.5t152.5 152t189.5 60.5q52 0 149 -37h166l-147 -742h-211l115 297h-43q-26 -43 -66.5 -94.5t-91.5 -104t-107.5 -87.5t-101.5 -35q-72 0 -105.5 58.5t-33.5 135.5zM432 954q0 -67 29 -67q34 0 155 127.5t203 230.5l27 125q-66 37 -141 37 q-59 0 -108 -38.5t-78.5 -94.5t-50 -122t-28.5 -116.5t-8 -81.5z" />
<glyph unicode="&#xab;" horiz-adv-x="1079" d="M203 604l487 445l88 -86l-377 -359l209 -377l-104 -67zM610 604l488 445l88 -86l-377 -359l209 -377l-105 -67z" />
<glyph unicode="&#xac;" d="M190 690l29 148h1186l-98 -494h-150l70 346h-1037z" />
<glyph unicode="&#xad;" horiz-adv-x="641" d="M207 543l29 147h444l-29 -147h-444z" />
<glyph unicode="&#xae;" d="M414 1073q0 185 130 315t314 130t314.5 -130t130.5 -315q0 -184 -130 -314t-315 -130q-184 0 -314 129.5t-130 314.5zM512 1073q0 -143 102 -244.5t244 -101.5t244 101.5t102 244.5t-102 244.5t-244 101.5t-244 -101.5t-102 -244.5zM651 803l109 543h63h32.5h35.5 t34.5 -1t35.5 -3t32 -6.5t30.5 -11.5t24.5 -17t20.5 -23t11.5 -30.5t5 -39.5q0 -58 -40.5 -105t-100.5 -65l82 -241h-106l-76 221h-49l-45 -221h-99zM809 1098h53q54 0 85.5 29.5t31.5 76.5q0 19 -8.5 33t-19 20.5t-28.5 10t-28 4t-27 0.5h-24z" />
<glyph unicode="&#xaf;" horiz-adv-x="1159" d="M586 1284l24 123h568l-25 -123h-567z" />
<glyph unicode="&#xb0;" horiz-adv-x="550" d="M373 1352q0 69 48.5 117.5t117.5 48.5t117.5 -48.5t48.5 -117.5t-48.5 -118.5t-117.5 -49.5t-117.5 49.5t-48.5 118.5zM453 1352q0 -37 25.5 -62.5t60.5 -25.5t60.5 25.5t25.5 62.5q0 35 -25.5 60.5t-60.5 25.5t-60.5 -25.5t-25.5 -60.5z" />
<glyph unicode="&#xb1;" d="M55 0l31 147h1184l-31 -147h-1184zM186 664l31 147h516l76 373h147l-73 -373h518l-31 -147h-518l-74 -369h-147l74 369h-519z" />
<glyph unicode="&#xb2;" horiz-adv-x="802" d="M264 739l31 148q39 52 104 103.5t126.5 91t119 77.5t92.5 76.5t35 75.5q0 42 -35 63t-80 21q-135 0 -276 -74l29 152q123 45 282 45q45 0 87.5 -9.5t80.5 -29t61 -55t23 -83.5q0 -61 -39 -118t-98.5 -101.5t-120.5 -83t-116.5 -78.5t-75.5 -73h393l-31 -148h-592z" />
<glyph unicode="&#xb3;" horiz-adv-x="802" d="M289 756l24 123q159 -41 228 -41q61 0 113.5 33.5t52.5 91.5q0 27 -11.5 47.5t-32 32.5t-40.5 19.5t-46.5 10.5t-39.5 3.5t-29 0.5h-57l24 123h57q111 0 171.5 44t60.5 83q0 68 -129 68q-89 0 -225 -33l26 129q117 27 240 27q260 0 260 -150q0 -55 -41 -104.5t-92.5 -78 t-106.5 -44.5v-4q78 -14 130.5 -56t52.5 -116q0 -29 -18 -68t-55 -81.5t-107 -71.5t-160 -29q-116 0 -250 41z" />
<glyph unicode="&#xb4;" horiz-adv-x="1159" d="M727 1284l256 295h236l-345 -295h-147z" />
<glyph unicode="&#xb5;" horiz-adv-x="1284" d="M139 -297l275 1382h196l-149 -759q-4 -25 -4 -76q0 -84 55 -84q36 0 85 32.5t94.5 78t101 112.5t93 118.5t82.5 113.5t60 81l76 383h199l-218 -1085h-196l100 444h-12q-22 -56 -53 -116t-76.5 -124t-94.5 -114t-110 -82.5t-121 -32.5q-78 0 -125 37l-61 -309h-197z" />
<glyph unicode="&#xb6;" d="M328 1141q0 163 83 251.5t253 88.5h575l-354 -1778h-125l330 1655h-148l-328 -1655h-125l207 1036q-155 21 -261.5 134.5t-106.5 267.5z" />
<glyph unicode="&#xb7;" horiz-adv-x="647" d="M301 469l49 246h246l-49 -246h-246z" />
<glyph unicode="&#xb8;" horiz-adv-x="1159" d="M397 -375l19 88q30 -10 59 -10q45 0 77 18.5t32 59.5q0 17 -7 30.5t-14.5 21t-25 15t-25.5 10t-29 7.5l107 135h94l-80 -102q127 -36 127 -136q0 -15 -6.5 -33.5t-23 -41t-40 -40.5t-63.5 -30t-88 -12q-39 0 -113 20z" />
<glyph unicode="&#xb9;" horiz-adv-x="802" d="M469 739l127 643h-123l19 99l303 37l-154 -779h-172z" />
<glyph unicode="&#xba;" horiz-adv-x="802" d="M227 948q0 106 46.5 210.5t122.5 183t179 127.5t209 49q116 0 181 -59.5t65 -174.5q0 -141 -77.5 -273t-207 -214t-272.5 -82q-116 0 -181 59.5t-65 173.5zM412 987q0 -57 36.5 -94t94.5 -37q76 0 148.5 68t113.5 158t41 163q0 58 -35.5 94.5t-93.5 36.5 q-77 0 -150 -67.5t-114 -157.5t-41 -164z" />
<glyph unicode="&#xbb;" horiz-adv-x="1079" d="M111 246l376 358l-208 377l104 68l303 -445l-487 -444zM518 246l377 358l-209 377l105 68l303 -445l-488 -444z" />
<glyph unicode="&#xbc;" horiz-adv-x="1771" d="M184 -37l1358 1555h197l-1358 -1555h-197zM416 739l127 643h-123l18 99l303 37l-153 -779h-172zM1001 193l31 153l465 406h184l-84 -418h123l-28 -141h-123l-37 -193h-174l39 193h-396zM1188 334h237l50 248l-5 4z" />
<glyph unicode="&#xbd;" horiz-adv-x="1771" d="M184 -37l1358 1555h197l-1358 -1555h-197zM412 739l127 643h-123l18 99l303 37l-153 -779h-172zM1092 0l30 147q39 52 104 103.5t126.5 91t119 77.5t92.5 76.5t35 75.5q0 42 -35 63t-79 21q-138 0 -277 -73l29 151q123 45 283 45q45 0 87.5 -9t80.5 -28.5t61 -55 t23 -83.5q0 -61 -39 -118t-98.5 -101.5t-121 -83.5t-117 -79t-75.5 -73h393l-31 -147h-591z" />
<glyph unicode="&#xbe;" horiz-adv-x="1771" d="M211 756l25 123q159 -41 227 -41q61 0 113.5 33.5t52.5 91.5q0 27 -11.5 47.5t-32 32.5t-40.5 19.5t-46.5 10.5t-39.5 3.5t-29 0.5h-57l24 123h58q111 0 171 44t60 83q0 68 -129 68q-89 0 -225 -33l26 129q117 27 240 27q260 0 260 -150q0 -55 -41 -104.5t-92.5 -78 t-106.5 -44.5v-4q78 -14 130.5 -56t52.5 -116q0 -29 -18 -68t-55 -81.5t-107 -71.5t-160 -29q-116 0 -250 41zM221 -37l1358 1555h197l-1358 -1555h-197zM1001 193l31 153l465 406h184l-84 -418h123l-28 -141h-123l-37 -193h-174l39 193h-396zM1188 334h237l50 248l-5 4z " />
<glyph unicode="&#xbf;" horiz-adv-x="950" d="M80 -143q0 75 26.5 140t70.5 115t97.5 97.5t109 96.5t103.5 102.5t84 126t47 155.5h197q-5 -74 -37.5 -145t-79 -128t-101.5 -112t-109.5 -105.5t-99 -99.5t-72 -104t-27.5 -109q0 -57 36.5 -94.5t87 -51t113.5 -13.5q83 0 157 20.5t169 61.5l-33 -172q-171 -58 -334 -58 q-60 0 -114.5 7.5t-109 27.5t-93.5 50.5t-63.5 79.5t-24.5 112zM655 889l39 196h199l-39 -196h-199z" />
<glyph unicode="&#xc0;" horiz-adv-x="1406" d="M43 0l852 1481h197l284 -1481h-200l-74 383h-653l-222 -383h-184zM532 530h541l-135 705zM827 1892h222l139 -295h-150z" />
<glyph unicode="&#xc1;" horiz-adv-x="1406" d="M43 0l852 1481h197l284 -1481h-200l-74 383h-653l-222 -383h-184zM532 530h541l-135 705zM872 1597l256 295h236l-344 -295h-148z" />
<glyph unicode="&#xc2;" horiz-adv-x="1406" d="M43 0l852 1481h197l284 -1481h-200l-74 383h-653l-222 -383h-184zM532 530h541l-135 705zM688 1597l293 295h209l139 -295h-147l-138 185l-196 -185h-160z" />
<glyph unicode="&#xc3;" horiz-adv-x="1406" d="M43 0l852 1481h197l284 -1481h-200l-74 383h-653l-222 -383h-184zM532 530h541l-135 705zM711 1597q13 99 69 160q61 74 154 74q45 0 125 -41q7 -4 24 -13.5t28 -15.5t26.5 -11t27.5 -5q32 0 51.5 26t24.5 60h123q-9 -90 -68 -162q-65 -72 -155 -72q-45 0 -125 41 q-6 3 -30.5 16.5t-42.5 21t-34 7.5q-57 0 -75 -86h-123z" />
<glyph unicode="&#xc4;" horiz-adv-x="1406" d="M43 0l852 1481h197l284 -1481h-200l-74 383h-653l-222 -383h-184zM532 530h541l-135 705zM731 1597l35 172h172l-35 -172h-172zM1126 1597l35 172h172l-35 -172h-172z" />
<glyph unicode="&#xc5;" horiz-adv-x="1406" d="M43 0l852 1481h197l284 -1481h-200l-74 383h-653l-222 -383h-184zM532 530h541l-135 705zM881 1757q0 66 46.5 113t112.5 47t113 -47t47 -113t-47 -113t-113 -47t-112.5 47t-46.5 113zM954 1757q0 -35 25.5 -60.5t60.5 -25.5t60.5 25.5t25.5 60.5t-25.5 60.5t-60.5 25.5 t-60.5 -25.5t-25.5 -60.5z" />
<glyph unicode="&#xc6;" horiz-adv-x="1828" d="M18 0l1141 1481h866l-30 -148h-617l-96 -487h506l-31 -148h-506l-108 -551h659l-28 -147h-859l76 383h-475l-295 -383h-203zM629 530h393l147 705h-4z" />
<glyph unicode="&#xc7;" horiz-adv-x="1390" d="M229 516q0 187 65.5 367.5t179.5 321t283 227t361 86.5q252 0 457 -50l-35 -172q-101 28 -146.5 39t-120 23t-140.5 12q-108 0 -203.5 -34t-164.5 -89.5t-126 -129.5t-93.5 -152t-61.5 -159t-35.5 -148t-10.5 -121q0 -194 106 -304t298 -110q87 0 185 20.5t157 40 t176 62.5l-31 -156q-305 -127 -557 -127l-51 -65q127 -36 127 -136q0 -15 -6.5 -33.5t-23 -41t-40 -40.5t-63.5 -30t-88 -12q-39 0 -113 20l18 88q30 -10 60 -10q44 0 76 18.5t32 59.5q0 17 -7 30.5t-14.5 21t-24.5 15t-25.5 10t-28.5 7.5l82 106q-214 25 -333.5 170 t-119.5 375z" />
<glyph unicode="&#xc8;" horiz-adv-x="1120" d="M197 0l295 1481h815l-31 -148h-617l-96 -487h506l-31 -148h-506l-108 -551h659l-28 -147h-858zM682 1892h221l139 -295h-149z" />
<glyph unicode="&#xc9;" horiz-adv-x="1120" d="M197 0l295 1481h815l-31 -148h-617l-96 -487h506l-31 -148h-506l-108 -551h659l-28 -147h-858zM729 1597l256 295h236l-344 -295h-148z" />
<glyph unicode="&#xca;" horiz-adv-x="1120" d="M197 0l295 1481h815l-31 -148h-617l-96 -487h506l-31 -148h-506l-108 -551h659l-28 -147h-858zM545 1597l293 295h209l139 -295h-148l-137 185l-196 -185h-160z" />
<glyph unicode="&#xcb;" horiz-adv-x="1120" d="M197 0l295 1481h815l-31 -148h-617l-96 -487h506l-31 -148h-506l-108 -551h659l-28 -147h-858zM588 1597l35 172h172l-35 -172h-172zM983 1597l35 172h172l-35 -172h-172z" />
<glyph unicode="&#xcc;" horiz-adv-x="591" d="M197 0l295 1481h198l-295 -1481h-198zM418 1892h221l139 -295h-149z" />
<glyph unicode="&#xcd;" horiz-adv-x="591" d="M197 0l295 1481h198l-295 -1481h-198zM463 1597l256 295h235l-344 -295h-147z" />
<glyph unicode="&#xce;" horiz-adv-x="591" d="M197 0l295 1481h198l-295 -1481h-198zM279 1597l292 295h209l140 -295h-148l-137 185l-197 -185h-159z" />
<glyph unicode="&#xcf;" horiz-adv-x="591" d="M197 0l295 1481h198l-295 -1481h-198zM322 1597l34 172h172l-34 -172h-172zM717 1597l35 172h172l-35 -172h-172z" />
<glyph unicode="&#xd0;" horiz-adv-x="1521" d="M111 680l28 147h223l130 654h565q123 0 218.5 -29.5t167.5 -91t110 -164t38 -242.5q0 -81 -15.5 -169t-49.5 -181.5t-83.5 -180t-122.5 -164t-161 -135t-205 -91t-249 -33.5h-508l137 680h-223zM422 147h276q110 0 204.5 30.5t163 82t124 120.5t90.5 142.5t58.5 152.5 t33.5 147.5t10 129.5q0 109 -35 184.5t-105.5 118t-162.5 60.5t-219 18h-201l-100 -506h346l-31 -147h-344z" />
<glyph unicode="&#xd1;" horiz-adv-x="1517" d="M197 0l295 1481h198l512 -1200h4l236 1200h172l-293 -1481h-199l-512 1200h-4l-235 -1200h-174zM766 1597q13 97 70 160q61 74 153 74q45 0 125 -41q7 -3 24.5 -13t28.5 -16t26.5 -11t27.5 -5q32 0 51 25.5t24 60.5h123q-9 -92 -67 -162q-65 -72 -156 -72q-45 0 -125 41 q-6 3 -30 16.5t-42 21t-34 7.5q-58 0 -76 -86h-123z" />
<glyph unicode="&#xd2;" horiz-adv-x="1591" d="M229 516q0 187 65.5 367.5t179.5 321t283 227t361 86.5q254 0 398.5 -149.5t144.5 -405.5q0 -149 -41 -295t-120 -272.5t-185.5 -223.5t-247 -153t-295.5 -56q-254 0 -398.5 149.5t-144.5 403.5zM438 528q0 -83 23 -157t66.5 -132.5t113.5 -93t156 -34.5 q120 0 226.5 52.5t183.5 139t133 196t84 226t28 227.5q0 118 -40.5 211t-126.5 150t-206 57q-116 0 -220 -54t-179.5 -142t-131 -198.5t-83 -226t-27.5 -221.5zM920 1892h221l139 -295h-150z" />
<glyph unicode="&#xd3;" horiz-adv-x="1591" d="M229 516q0 187 65.5 367.5t179.5 321t283 227t361 86.5q254 0 398.5 -149.5t144.5 -405.5q0 -149 -41 -295t-120 -272.5t-185.5 -223.5t-247 -153t-295.5 -56q-254 0 -398.5 149.5t-144.5 403.5zM438 528q0 -83 23 -157t66.5 -132.5t113.5 -93t156 -34.5 q120 0 226.5 52.5t183.5 139t133 196t84 226t28 227.5q0 118 -40.5 211t-126.5 150t-206 57q-116 0 -220 -54t-179.5 -142t-131 -198.5t-83 -226t-27.5 -221.5zM965 1597l256 295h235l-344 -295h-147z" />
<glyph unicode="&#xd4;" horiz-adv-x="1591" d="M229 516q0 187 65.5 367.5t179.5 321t283 227t361 86.5q254 0 398.5 -149.5t144.5 -405.5q0 -149 -41 -295t-120 -272.5t-185.5 -223.5t-247 -153t-295.5 -56q-254 0 -398.5 149.5t-144.5 403.5zM438 528q0 -83 23 -157t66.5 -132.5t113.5 -93t156 -34.5 q120 0 226.5 52.5t183.5 139t133 196t84 226t28 227.5q0 118 -40.5 211t-126.5 150t-206 57q-116 0 -220 -54t-179.5 -142t-131 -198.5t-83 -226t-27.5 -221.5zM801 1597l293 295h209l139 -295h-148l-137 185l-196 -185h-160z" />
<glyph unicode="&#xd5;" horiz-adv-x="1591" d="M229 516q0 187 65.5 367.5t179.5 321t283 227t361 86.5q254 0 398.5 -149.5t144.5 -405.5q0 -149 -41 -295t-120 -272.5t-185.5 -223.5t-247 -153t-295.5 -56q-254 0 -398.5 149.5t-144.5 403.5zM438 528q0 -83 23 -157t66.5 -132.5t113.5 -93t156 -34.5 q120 0 226.5 52.5t183.5 139t133 196t84 226t28 227.5q0 118 -40.5 211t-126.5 150t-206 57q-116 0 -220 -54t-179.5 -142t-131 -198.5t-83 -226t-27.5 -221.5zM803 1597q13 99 69 160q61 74 154 74q45 0 125 -41q7 -4 24 -13.5t28 -15.5t26.5 -11t27.5 -5q32 0 51.5 26 t24.5 60h123q-9 -92 -67 -162q-65 -72 -156 -72q-45 0 -125 41q-6 3 -30.5 16.5t-42.5 21t-34 7.5q-57 0 -75 -86h-123z" />
<glyph unicode="&#xd6;" horiz-adv-x="1591" d="M229 516q0 187 65.5 367.5t179.5 321t283 227t361 86.5q254 0 398.5 -149.5t144.5 -405.5q0 -149 -41 -295t-120 -272.5t-185.5 -223.5t-247 -153t-295.5 -56q-254 0 -398.5 149.5t-144.5 403.5zM438 528q0 -83 23 -157t66.5 -132.5t113.5 -93t156 -34.5 q120 0 226.5 52.5t183.5 139t133 196t84 226t28 227.5q0 118 -40.5 211t-126.5 150t-206 57q-116 0 -220 -54t-179.5 -142t-131 -198.5t-83 -226t-27.5 -221.5zM854 1597l35 172h172l-35 -172h-172zM1249 1597l35 172h172l-35 -172h-172z" />
<glyph unicode="&#xd7;" d="M78 115l586 489l-392 488l117 92l389 -486l582 486l92 -115l-586 -489l391 -488l-110 -92l-389 485l-586 -485z" />
<glyph unicode="&#xd8;" horiz-adv-x="1591" d="M98 -37l217 223q-86 120 -86 330q0 187 65.5 367.5t179.5 321t283 227t361 86.5q215 0 359 -111l108 111h205l-215 -222q86 -142 86 -333q0 -149 -41 -295t-120 -272.5t-185.5 -223.5t-247 -153t-295.5 -56q-109 0 -194.5 25.5t-165.5 87.5l-109 -113h-205zM438 528 q0 -97 29 -180l874 916q-83 106 -262 106q-116 0 -220 -54t-179.5 -142t-131 -198.5t-83 -226t-27.5 -221.5zM547 217q95 -106 250 -106q120 0 226.5 52.5t183.5 139t133 196t84 226t28 227.5q0 102 -31 176z" />
<glyph unicode="&#xd9;" horiz-adv-x="1419" d="M266 358q0 76 27 211l180 912h197l-189 -955q-18 -85 -18 -143q0 -123 69 -197.5t213 -74.5q69 0 127.5 18.5t97.5 44t72 66.5t49.5 70t31.5 72t18 55.5t8 35.5l201 1008h172l-201 -1010q-5 -25 -10.5 -49.5t-25.5 -79t-46 -100t-73.5 -99.5t-105.5 -91.5t-145.5 -63 t-189.5 -25.5q-124 0 -216 32t-143.5 88.5t-75.5 124.5t-24 150zM834 1892h221l139 -295h-150z" />
<glyph unicode="&#xda;" horiz-adv-x="1419" d="M266 358q0 76 27 211l180 912h197l-189 -955q-18 -85 -18 -143q0 -123 69 -197.5t213 -74.5q69 0 127.5 18.5t97.5 44t72 66.5t49.5 70t31.5 72t18 55.5t8 35.5l201 1008h172l-201 -1010q-5 -25 -10.5 -49.5t-25.5 -79t-46 -100t-73.5 -99.5t-105.5 -91.5t-145.5 -63 t-189.5 -25.5q-124 0 -216 32t-143.5 88.5t-75.5 124.5t-24 150zM879 1597l256 295h235l-344 -295h-147z" />
<glyph unicode="&#xdb;" horiz-adv-x="1419" d="M266 358q0 76 27 211l180 912h197l-189 -955q-18 -85 -18 -143q0 -123 69 -197.5t213 -74.5q69 0 127.5 18.5t97.5 44t72 66.5t49.5 70t31.5 72t18 55.5t8 35.5l201 1008h172l-201 -1010q-5 -25 -10.5 -49.5t-25.5 -79t-46 -100t-73.5 -99.5t-105.5 -91.5t-145.5 -63 t-189.5 -25.5q-124 0 -216 32t-143.5 88.5t-75.5 124.5t-24 150zM694 1597l293 295h209l139 -295h-147l-137 185l-197 -185h-160z" />
<glyph unicode="&#xdc;" horiz-adv-x="1419" d="M266 358q0 76 27 211l180 912h197l-189 -955q-18 -85 -18 -143q0 -123 69 -197.5t213 -74.5q69 0 127.5 18.5t97.5 44t72 66.5t49.5 70t31.5 72t18 55.5t8 35.5l201 1008h172l-201 -1010q-5 -25 -10.5 -49.5t-25.5 -79t-46 -100t-73.5 -99.5t-105.5 -91.5t-145.5 -63 t-189.5 -25.5q-124 0 -216 32t-143.5 88.5t-75.5 124.5t-24 150zM737 1597l35 172h172l-35 -172h-172zM1133 1597l34 172h172l-34 -172h-172z" />
<glyph unicode="&#xdd;" horiz-adv-x="1245" d="M315 1481h213l269 -633l497 633h205l-641 -815l-133 -666h-197l131 666zM791 1597l256 295h235l-344 -295h-147z" />
<glyph unicode="&#xde;" horiz-adv-x="1177" d="M197 0l295 1481h198l-59 -295h252q47 0 92 -7t96.5 -27.5t89.5 -53.5t63 -89.5t25 -129.5q0 -79 -28 -161t-85.5 -158.5t-137 -136.5t-192.5 -96t-241 -36q-52 0 -110 12l-60 -303h-198zM483 446q50 -8 78 -8q85 0 156 19t119.5 49t86 71.5t59 82t35.5 84.5t18.5 76 t4.5 59q0 34 -11.5 60.5t-34.5 43.5t-50.5 28.5t-65.5 17t-73 7.5t-80 2q-69 0 -125 -6z" />
<glyph unicode="&#xdf;" horiz-adv-x="1218" d="M119 -395l317 1595q10 52 27.5 101t53 106t83 99t123 70t166.5 28q65 0 117.5 -17t83.5 -43t52 -59.5t28.5 -62t7.5 -54.5q0 -42 -13.5 -82.5t-30 -68.5t-50 -63t-54.5 -53.5t-63 -53.5q-3 -3 -21.5 -18.5t-24.5 -21.5t-21.5 -21t-22 -25t-15.5 -25t-12.5 -29.5 t-3.5 -29.5q0 -19 6.5 -37t23.5 -38.5t26 -30.5t34 -33t27 -25q149 -141 188 -187q63 -76 69 -152q2 -20 1 -42q-3 -86 -36 -153t-78.5 -104t-103 -61t-102.5 -31.5t-86 -7.5q-119 0 -231 41l30 156q141 -49 224 -49q80 0 139 50.5t59 129.5q0 55 -41.5 105t-214.5 206 q-40 36 -60.5 58.5t-39 61.5t-18.5 83q0 47 15 90.5t47 84.5t57.5 67t70.5 67q43 41 63.5 63.5t43 65.5t22.5 86q0 55 -34.5 85t-90.5 30q-34 0 -63 -11t-50 -27t-39 -43.5t-29.5 -51t-22.5 -59t-16.5 -58t-12.5 -57.5l-308 -1544h-196z" />
<glyph unicode="&#xe0;" horiz-adv-x="1245" d="M172 238q0 84 24 181t67.5 194.5t109.5 187t144.5 158.5t179 110t206.5 41q81 0 164 -25h197l-215 -1085h-197l100 444h-12q-43 -75 -101 -151t-132 -150.5t-161 -121t-167 -46.5q-65 0 -113.5 41.5t-71 100t-22.5 121.5zM381 276q0 -46 20.5 -78t63.5 -32q144 0 516 504 q4 5 6 8l49 254q-66 37 -151 37q-102 0 -197.5 -67t-161.5 -169.5t-105.5 -224.5t-39.5 -232zM725 1579h221l139 -295h-149z" />
<glyph unicode="&#xe1;" horiz-adv-x="1245" d="M172 238q0 84 24 181t67.5 194.5t109.5 187t144.5 158.5t179 110t206.5 41q81 0 164 -25h197l-215 -1085h-197l100 444h-12q-43 -75 -101 -151t-132 -150.5t-161 -121t-167 -46.5q-65 0 -113.5 41.5t-71 100t-22.5 121.5zM381 276q0 -46 20.5 -78t63.5 -32q144 0 516 504 q4 5 6 8l49 254q-66 37 -151 37q-102 0 -197.5 -67t-161.5 -169.5t-105.5 -224.5t-39.5 -232zM770 1284l256 295h236l-344 -295h-148z" />
<glyph unicode="&#xe2;" horiz-adv-x="1245" d="M172 238q0 84 24 181t67.5 194.5t109.5 187t144.5 158.5t179 110t206.5 41q81 0 164 -25h197l-215 -1085h-197l100 444h-12q-43 -75 -101 -151t-132 -150.5t-161 -121t-167 -46.5q-65 0 -113.5 41.5t-71 100t-22.5 121.5zM381 276q0 -46 20.5 -78t63.5 -32q144 0 516 504 q4 5 6 8l49 254q-66 37 -151 37q-102 0 -197.5 -67t-161.5 -169.5t-105.5 -224.5t-39.5 -232zM586 1284l293 295h208l140 -295h-148l-137 184l-197 -184h-159z" />
<glyph unicode="&#xe3;" horiz-adv-x="1245" d="M172 238q0 84 24 181t67.5 194.5t109.5 187t144.5 158.5t179 110t206.5 41q81 0 164 -25h197l-215 -1085h-197l100 444h-12q-43 -75 -101 -151t-132 -150.5t-161 -121t-167 -46.5q-65 0 -113.5 41.5t-71 100t-22.5 121.5zM381 276q0 -46 20.5 -78t63.5 -32q144 0 516 504 q4 5 6 8l49 254q-66 37 -151 37q-102 0 -197.5 -67t-161.5 -169.5t-105.5 -224.5t-39.5 -232zM608 1284q13 97 70 160q61 74 153 74q45 0 125 -41q7 -3 24.5 -13t28.5 -16t26.5 -11t27.5 -5q32 0 51.5 26t24.5 60h123q-9 -90 -68 -162q-65 -72 -156 -72q-45 0 -125 41 q-6 3 -30 16.5t-42 21t-34 7.5q-58 0 -76 -86h-123z" />
<glyph unicode="&#xe4;" horiz-adv-x="1245" d="M172 238q0 84 24 181t67.5 194.5t109.5 187t144.5 158.5t179 110t206.5 41q81 0 164 -25h197l-215 -1085h-197l100 444h-12q-43 -75 -101 -151t-132 -150.5t-161 -121t-167 -46.5q-65 0 -113.5 41.5t-71 100t-22.5 121.5zM381 276q0 -46 20.5 -78t63.5 -32q144 0 516 504 q4 5 6 8l49 254q-66 37 -151 37q-102 0 -197.5 -67t-161.5 -169.5t-105.5 -224.5t-39.5 -232zM629 1284l35 172h172l-35 -172h-172zM1024 1284l35 172h172l-35 -172h-172z" />
<glyph unicode="&#xe5;" horiz-adv-x="1245" d="M172 238q0 84 24 181t67.5 194.5t109.5 187t144.5 158.5t179 110t206.5 41q81 0 164 -25h197l-215 -1085h-197l100 444h-12q-43 -75 -101 -151t-132 -150.5t-161 -121t-167 -46.5q-65 0 -113.5 41.5t-71 100t-22.5 121.5zM381 276q0 -46 20.5 -78t63.5 -32q144 0 516 504 q4 5 6 8l49 254q-66 37 -151 37q-102 0 -197.5 -67t-161.5 -169.5t-105.5 -224.5t-39.5 -232zM780 1444q0 66 47 113t113 47t113 -47t47 -113t-47 -113t-113 -47t-113 47t-47 113zM854 1444q0 -35 25.5 -60.5t60.5 -25.5t60.5 25.5t25.5 60.5t-25.5 60.5t-60.5 25.5 t-60.5 -25.5t-25.5 -60.5z" />
<glyph unicode="&#xe6;" horiz-adv-x="1828" d="M172 238q0 84 24 181t67.5 194.5t109.5 187t144.5 158.5t179 110t206.5 41q81 0 164 -25h197l-19 -84h4q135 109 334 109q106 0 174 -55t68 -162q0 -79 -31.5 -148.5t-85.5 -121t-123 -93t-146.5 -68.5t-153 -42t-146.5 -19q-5 -111 50 -188.5t163 -77.5q105 0 234 48.5 t226 115.5l-36 -190q-246 -134 -490 -134q-170 0 -263 98.5t-93 270.5q0 45 22 100h-12q-43 -75 -101 -151t-132 -150.5t-161 -121t-167 -46.5q-65 0 -113.5 41.5t-71 100t-22.5 121.5zM381 276q0 -46 20.5 -78t63.5 -32q144 0 516 504q4 5 6 8l49 254q-66 37 -151 37 q-102 0 -197.5 -67t-161.5 -169.5t-105.5 -224.5t-39.5 -232zM1159 549q70 2 149.5 23t152 57t120 94t47.5 125q0 48 -37 81.5t-84 33.5q-83 0 -161.5 -71.5t-126 -165t-60.5 -177.5z" />
<glyph unicode="&#xe7;" horiz-adv-x="1030" d="M184 358q0 134 54 269t143.5 242t218 174t266.5 67q79 0 248 -33l-33 -162q-109 48 -223 48q-87 0 -163.5 -36t-130.5 -96.5t-93.5 -137.5t-58.5 -160t-19 -164q0 -109 52 -177.5t157 -68.5q81 0 188.5 37t184.5 86l-35 -172q-189 -84 -336 -94l-63 -82q127 -36 127 -136 q0 -19 -11.5 -43.5t-35 -51t-69.5 -44.5t-106 -18q-38 0 -112 20l18 88q30 -10 60 -10q44 0 76 18.5t32 59.5q0 17 -7 30.5t-14.5 21t-24.5 15t-25.5 10t-28.5 7.5l88 112q-162 10 -243 109t-81 272z" />
<glyph unicode="&#xe8;" horiz-adv-x="1083" d="M184 344q0 60 11.5 127.5t36.5 142t61.5 145t90.5 135t119 112t151.5 76t183.5 28.5q106 0 173.5 -55t67.5 -162q0 -79 -31.5 -148.5t-85.5 -121t-123 -93t-146.5 -68.5t-153 -42t-146.5 -19q-5 -111 50 -188.5t163 -77.5q105 0 234.5 48.5t226.5 115.5l-37 -190 q-246 -134 -489 -134q-170 0 -263.5 98.5t-93.5 270.5zM414 549q70 2 149.5 23t152 57t120 94t47.5 125q0 48 -37 81.5t-84 33.5q-83 0 -161.5 -71.5t-126 -165t-60.5 -177.5zM645 1579h221l140 -295h-150z" />
<glyph unicode="&#xe9;" horiz-adv-x="1083" d="M184 344q0 60 11.5 127.5t36.5 142t61.5 145t90.5 135t119 112t151.5 76t183.5 28.5q106 0 173.5 -55t67.5 -162q0 -79 -31.5 -148.5t-85.5 -121t-123 -93t-146.5 -68.5t-153 -42t-146.5 -19q-5 -111 50 -188.5t163 -77.5q105 0 234.5 48.5t226.5 115.5l-37 -190 q-246 -134 -489 -134q-170 0 -263.5 98.5t-93.5 270.5zM414 549q70 2 149.5 23t152 57t120 94t47.5 125q0 48 -37 81.5t-84 33.5q-83 0 -161.5 -71.5t-126 -165t-60.5 -177.5zM690 1284l256 295h236l-344 -295h-148z" />
<glyph unicode="&#xea;" horiz-adv-x="1083" d="M184 344q0 60 11.5 127.5t36.5 142t61.5 145t90.5 135t119 112t151.5 76t183.5 28.5q106 0 173.5 -55t67.5 -162q0 -79 -31.5 -148.5t-85.5 -121t-123 -93t-146.5 -68.5t-153 -42t-146.5 -19q-5 -111 50 -188.5t163 -77.5q105 0 234.5 48.5t226.5 115.5l-37 -190 q-246 -134 -489 -134q-170 0 -263.5 98.5t-93.5 270.5zM414 549q70 2 149.5 23t152 57t120 94t47.5 125q0 48 -37 81.5t-84 33.5q-83 0 -161.5 -71.5t-126 -165t-60.5 -177.5zM506 1284l293 295h209l139 -295h-148l-137 184l-196 -184h-160z" />
<glyph unicode="&#xeb;" horiz-adv-x="1083" d="M184 344q0 60 11.5 127.5t36.5 142t61.5 145t90.5 135t119 112t151.5 76t183.5 28.5q106 0 173.5 -55t67.5 -162q0 -79 -31.5 -148.5t-85.5 -121t-123 -93t-146.5 -68.5t-153 -42t-146.5 -19q-5 -111 50 -188.5t163 -77.5q105 0 234.5 48.5t226.5 115.5l-37 -190 q-246 -134 -489 -134q-170 0 -263.5 98.5t-93.5 270.5zM414 549q70 2 149.5 23t152 57t120 94t47.5 125q0 48 -37 81.5t-84 33.5q-83 0 -161.5 -71.5t-126 -165t-60.5 -177.5zM549 1284l35 172h172l-35 -172h-172zM944 1284l35 172h172l-35 -172h-172z" />
<glyph unicode="&#xec;" horiz-adv-x="591" d="M197 0l217 1085h196l-215 -1085h-198zM399 1579h222l139 -295h-150z" />
<glyph unicode="&#xed;" horiz-adv-x="591" d="M197 0l217 1085h196l-215 -1085h-198zM444 1284l256 295h236l-344 -295h-148z" />
<glyph unicode="&#xee;" horiz-adv-x="591" d="M197 0l217 1085h196l-215 -1085h-198zM260 1284l293 295h209l139 -295h-147l-138 184l-196 -184h-160z" />
<glyph unicode="&#xef;" horiz-adv-x="591" d="M197 0l217 1085h196l-215 -1085h-198zM303 1284l35 172h172l-35 -172h-172zM698 1284l35 172h172l-35 -172h-172z" />
<glyph unicode="&#xf0;" horiz-adv-x="1138" d="M180 338q0 97 28.5 201.5t83 201t127 174t168.5 124t199 46.5q112 0 160 -57q-18 173 -129 272l-239 -172l-86 119l188 135q-96 44 -234 50l31 147q203 -3 354 -88l218 154l86 -119l-181 -127q110 -108 163.5 -263t53.5 -329q0 -96 -16.5 -192t-48.5 -190t-84.5 -175 t-119.5 -142.5t-158.5 -97t-196.5 -35.5q-171 0 -269 96.5t-98 266.5zM389 381q0 -49 9.5 -92t29.5 -82t58 -61.5t89 -22.5q96 0 175.5 55t126.5 140.5t72.5 180.5t25.5 185q0 113 -44 183.5t-145 70.5q-104 0 -197 -83t-146.5 -211.5t-53.5 -262.5z" />
<glyph unicode="&#xf1;" horiz-adv-x="1269" d="M197 0l217 1085h196l-100 -444h12q283 469 549 469q92 0 136 -56t44 -151q0 -71 -16 -149l-150 -754h-196l149 760q4 25 4 76q0 84 -55 84q-36 0 -85 -32.5t-94.5 -78.5t-101 -112.5t-93.5 -118.5t-82.5 -114t-59.5 -81l-76 -383h-198zM621 1284q13 99 69 160 q61 74 154 74q45 0 125 -41q7 -4 24 -13.5t28 -15.5t26.5 -11t27.5 -5q32 0 51.5 26t24.5 60h123q-9 -90 -68 -162q-65 -72 -155 -72q-45 0 -125 41q-6 3 -30.5 16.5t-42.5 21t-34 7.5q-58 0 -76 -86h-122z" />
<glyph unicode="&#xf2;" horiz-adv-x="1159" d="M180 344q0 60 11.5 127.5t36.5 142t61.5 145t90.5 135t119 112t151.5 76t183.5 28.5q171 0 264.5 -98.5t93.5 -270.5q0 -58 -12 -125t-38.5 -141.5t-64 -145t-92 -135t-119.5 -113.5t-150 -77.5t-179 -28.5q-170 0 -263.5 98.5t-93.5 270.5zM389 389q0 -52 8.5 -96 t28.5 -84t59 -63t93 -23q76 0 143.5 38t114.5 99t81 137t50 153t16 146q0 267 -199 267q-74 0 -139.5 -39t-111 -101t-79 -138.5t-49.5 -152.5t-16 -143zM610 1579h221l140 -295h-150z" />
<glyph unicode="&#xf3;" horiz-adv-x="1159" d="M180 344q0 60 11.5 127.5t36.5 142t61.5 145t90.5 135t119 112t151.5 76t183.5 28.5q171 0 264.5 -98.5t93.5 -270.5q0 -58 -12 -125t-38.5 -141.5t-64 -145t-92 -135t-119.5 -113.5t-150 -77.5t-179 -28.5q-170 0 -263.5 98.5t-93.5 270.5zM389 389q0 -52 8.5 -96 t28.5 -84t59 -63t93 -23q76 0 143.5 38t114.5 99t81 137t50 153t16 146q0 267 -199 267q-74 0 -139.5 -39t-111 -101t-79 -138.5t-49.5 -152.5t-16 -143zM727 1284l256 295h236l-345 -295h-147z" />
<glyph unicode="&#xf4;" horiz-adv-x="1159" d="M180 344q0 60 11.5 127.5t36.5 142t61.5 145t90.5 135t119 112t151.5 76t183.5 28.5q171 0 264.5 -98.5t93.5 -270.5q0 -58 -12 -125t-38.5 -141.5t-64 -145t-92 -135t-119.5 -113.5t-150 -77.5t-179 -28.5q-170 0 -263.5 98.5t-93.5 270.5zM389 389q0 -52 8.5 -96 t28.5 -84t59 -63t93 -23q76 0 143.5 38t114.5 99t81 137t50 153t16 146q0 267 -199 267q-74 0 -139.5 -39t-111 -101t-79 -138.5t-49.5 -152.5t-16 -143zM543 1284l293 295h208l140 -295h-148l-137 184l-197 -184h-159z" />
<glyph unicode="&#xf5;" horiz-adv-x="1159" d="M180 344q0 60 11.5 127.5t36.5 142t61.5 145t90.5 135t119 112t151.5 76t183.5 28.5q171 0 264.5 -98.5t93.5 -270.5q0 -58 -12 -125t-38.5 -141.5t-64 -145t-92 -135t-119.5 -113.5t-150 -77.5t-179 -28.5q-170 0 -263.5 98.5t-93.5 270.5zM389 389q0 -52 8.5 -96 t28.5 -84t59 -63t93 -23q76 0 143.5 38t114.5 99t81 137t50 153t16 146q0 267 -199 267q-74 0 -139.5 -39t-111 -101t-79 -138.5t-49.5 -152.5t-16 -143zM565 1284q13 97 70 160q61 74 153 74q45 0 125 -41q7 -3 24.5 -13t28.5 -16t26.5 -11t27.5 -5q32 0 51.5 26t24.5 60 h123q-9 -90 -68 -162q-65 -72 -156 -72q-45 0 -125 41q-6 3 -30 16.5t-42 21t-34 7.5q-58 0 -76 -86h-123z" />
<glyph unicode="&#xf6;" horiz-adv-x="1159" d="M180 344q0 60 11.5 127.5t36.5 142t61.5 145t90.5 135t119 112t151.5 76t183.5 28.5q171 0 264.5 -98.5t93.5 -270.5q0 -58 -12 -125t-38.5 -141.5t-64 -145t-92 -135t-119.5 -113.5t-150 -77.5t-179 -28.5q-170 0 -263.5 98.5t-93.5 270.5zM389 389q0 -52 8.5 -96 t28.5 -84t59 -63t93 -23q76 0 143.5 38t114.5 99t81 137t50 153t16 146q0 267 -199 267q-74 0 -139.5 -39t-111 -101t-79 -138.5t-49.5 -152.5t-16 -143zM586 1284l35 172h172l-35 -172h-172zM981 1284l35 172h172l-35 -172h-172z" />
<glyph unicode="&#xf7;" d="M158 518l30 148h1184l-29 -148h-1185zM551 74l45 221h221l-43 -221h-223zM713 889l45 221h221l-43 -221h-223z" />
<glyph unicode="&#xf8;" horiz-adv-x="1159" d="M94 -25l137 158q-51 86 -51 211q0 60 11.5 127.5t36.5 142t61.5 145t90.5 135t119 112t151.5 76t183.5 28.5q103 0 206 -53l47 53h197l-141 -160q49 -88 49 -209q0 -58 -12 -125t-38.5 -141.5t-64 -145t-92 -135t-119.5 -113.5t-150 -77.5t-179 -28.5q-121 0 -205 52 l-41 -52h-197zM389 389q0 -22 4 -72l520 594q-47 52 -129 52q-74 0 -139.5 -39t-111 -101t-79 -138.5t-49.5 -152.5t-16 -143zM459 166q43 -43 119 -43t143.5 38t114.5 99t81 137t50 153t16 146q0 20 -4 66z" />
<glyph unicode="&#xf9;" horiz-adv-x="1269" d="M236 182q0 72 16 150l149 753h197l-149 -759q-5 -31 -5 -76q0 -84 56 -84q36 0 85 32.5t94.5 78t101 112.5t93 118.5t82.5 113.5t60 81l76 383h198l-217 -1085h-196l100 444h-12q-283 -469 -549 -469q-92 0 -136 56t-44 151zM676 1579h221l139 -295h-149z" />
<glyph unicode="&#xfa;" horiz-adv-x="1269" d="M236 182q0 72 16 150l149 753h197l-149 -759q-5 -31 -5 -76q0 -84 56 -84q36 0 85 32.5t94.5 78t101 112.5t93 118.5t82.5 113.5t60 81l76 383h198l-217 -1085h-196l100 444h-12q-283 -469 -549 -469q-92 0 -136 56t-44 151zM721 1284l256 295h235l-344 -295h-147z" />
<glyph unicode="&#xfb;" horiz-adv-x="1269" d="M236 182q0 72 16 150l149 753h197l-149 -759q-5 -31 -5 -76q0 -84 56 -84q36 0 85 32.5t94.5 78t101 112.5t93 118.5t82.5 113.5t60 81l76 383h198l-217 -1085h-196l100 444h-12q-283 -469 -549 -469q-92 0 -136 56t-44 151zM598 1284l293 295h209l139 -295h-147 l-138 184l-196 -184h-160z" />
<glyph unicode="&#xfc;" horiz-adv-x="1269" d="M236 182q0 72 16 150l149 753h197l-149 -759q-5 -31 -5 -76q0 -84 56 -84q36 0 85 32.5t94.5 78t101 112.5t93 118.5t82.5 113.5t60 81l76 383h198l-217 -1085h-196l100 444h-12q-283 -469 -549 -469q-92 0 -136 56t-44 151zM600 1284l35 172h172l-35 -172h-172z M995 1284l35 172h172l-35 -172h-172z" />
<glyph unicode="&#xfd;" horiz-adv-x="1122" d="M201 -395l248 395l-181 1085h201l127 -847l530 847h189l-924 -1480h-190zM668 1284l256 295h235l-344 -295h-147z" />
<glyph unicode="&#xfe;" horiz-adv-x="1245" d="M119 -395l393 1974h197l-99 -494l-100 -444h12q43 75 101 151t132 150.5t161 121t167 46.5q65 0 113.5 -41t71 -99.5t22.5 -121.5q0 -84 -24 -181t-67.5 -194.5t-109.5 -187t-144.5 -158.5t-179 -110.5t-206.5 -41.5q-81 0 -164 25l-80 -395h-196zM426 154 q66 -37 152 -37q79 0 151 36.5t125.5 96t97.5 134t71.5 152.5t42.5 148.5t15 124.5q0 46 -20.5 78.5t-63.5 32.5q-144 0 -516 -504q-4 -5 -6 -8z" />
<glyph unicode="&#xff;" horiz-adv-x="1122" d="M201 -395l248 395l-181 1085h201l127 -847l530 847h189l-924 -1480h-190zM567 1284l35 172h172l-35 -172h-172zM963 1284l34 172h172l-34 -172h-172z" />
<glyph unicode="&#x152;" horiz-adv-x="2058" d="M229 516q0 187 65.5 367.5t179.5 321t283 227t361 86.5t299 -99l13 62h815l-31 -148h-617l-96 -487h506l-31 -148h-506l-108 -551h659l-28 -147h-858l16 86q-74 -59 -179 -91t-200 -32q-254 0 -398.5 149.5t-144.5 403.5zM438 528q0 -83 23 -157t66.5 -132.5t113.5 -93 t156 -34.5q94 0 171.5 32.5t121 75t76 95t42.5 79t13 41.5l106 524q31 147 31 218q0 50 -26.5 89t-69.5 61t-89.5 33t-93.5 11q-116 0 -220 -54t-179.5 -142t-131 -198.5t-83 -226t-27.5 -221.5z" />
<glyph unicode="&#x153;" horiz-adv-x="1841" d="M180 344q0 60 11.5 127.5t36.5 142t61.5 145t90.5 135t119 112t151.5 76t183.5 28.5q69 0 132.5 -19.5t118 -65.5t76.5 -112q187 197 434 197q106 0 174 -55t68 -162q0 -79 -31.5 -148.5t-85.5 -121t-123 -93t-146.5 -68.5t-153 -42t-146.5 -19q-5 -111 50 -188.5 t163 -77.5q105 0 234.5 48.5t226.5 115.5l-37 -190q-246 -134 -490 -134q-109 0 -198.5 49t-128.5 150q-174 -199 -434 -199q-170 0 -263.5 98.5t-93.5 270.5zM389 389q0 -52 8.5 -96t28.5 -84t59 -63t93 -23q76 0 143.5 38t114.5 99t81 137t50 153t16 146q0 267 -199 267 q-74 0 -139.5 -39t-111 -101t-79 -138.5t-49.5 -152.5t-16 -143zM1171 549q70 2 149.5 23t152 57t120 94t47.5 125q0 48 -36.5 81.5t-83.5 33.5q-63 0 -125 -42t-107 -105.5t-76 -134t-41 -132.5z" />
<glyph unicode="&#x178;" horiz-adv-x="1245" d="M315 1481h213l269 -633l497 633h205l-641 -815l-133 -666h-197l131 666zM649 1597l35 172h172l-35 -172h-172zM1044 1597l35 172h172l-34 -172h-173z" />
<glyph unicode="&#x2c6;" horiz-adv-x="1159" d="M543 1284l293 295h208l140 -295h-148l-137 184l-197 -184h-159z" />
<glyph unicode="&#x2dc;" horiz-adv-x="1159" d="M565 1284q13 97 70 160q61 74 153 74q45 0 125 -41q7 -3 24.5 -13t28.5 -16t26.5 -11t27.5 -5q32 0 51.5 26t24.5 60h123q-9 -90 -68 -162q-65 -72 -156 -72q-45 0 -125 41q-6 3 -30 16.5t-42 21t-34 7.5q-58 0 -76 -86h-123z" />
<glyph unicode="&#x2000;" horiz-adv-x="958" />
<glyph unicode="&#x2001;" horiz-adv-x="1917" />
<glyph unicode="&#x2002;" horiz-adv-x="958" />
<glyph unicode="&#x2003;" horiz-adv-x="1917" />
<glyph unicode="&#x2004;" horiz-adv-x="639" />
<glyph unicode="&#x2005;" horiz-adv-x="479" />
<glyph unicode="&#x2006;" horiz-adv-x="319" />
<glyph unicode="&#x2007;" horiz-adv-x="319" />
<glyph unicode="&#x2008;" horiz-adv-x="239" />
<glyph unicode="&#x2009;" horiz-adv-x="383" />
<glyph unicode="&#x200a;" horiz-adv-x="106" />
<glyph unicode="&#x2010;" horiz-adv-x="641" d="M207 543l29 147h444l-29 -147h-444z" />
<glyph unicode="&#x2011;" horiz-adv-x="641" d="M207 543l29 147h444l-29 -147h-444z" />
<glyph unicode="&#x2012;" horiz-adv-x="641" d="M207 543l29 147h444l-29 -147h-444z" />
<glyph unicode="&#x2013;" horiz-adv-x="1024" d="M123 543l24 123h1027l-25 -123h-1026z" />
<glyph unicode="&#x2014;" horiz-adv-x="2048" d="M123 543l24 123h2051l-25 -123h-2050z" />
<glyph unicode="&#x2018;" horiz-adv-x="444" d="M264 1036l41 203q14 72 36 127.5t58 105t92.5 77.5t129.5 30l-17 -82q-101 -2 -131 -190l-4 -25h92l-49 -246h-248z" />
<glyph unicode="&#x2019;" horiz-adv-x="444" d="M264 1036l17 82q27 1 48.5 14.5t34.5 32t23.5 46.5t15.5 49t9 49l4 24h-92l49 246h248l-41 -203q-14 -72 -36 -127.5t-58 -105t-92.5 -77.5t-129.5 -30z" />
<glyph unicode="&#x201a;" horiz-adv-x="444" d="M45 -297l16 82q102 2 132 190l4 25h-93l50 246h247l-41 -203q-14 -72 -36 -127.5t-58 -105t-92 -77.5t-129 -30z" />
<glyph unicode="&#x201c;" horiz-adv-x="739" d="M272 1085l35 172q58 281 262 322l-18 -94q-28 -6 -47.5 -24.5t-30 -44.5t-16.5 -52.5t-11 -54.5q0 -3 -0.5 -5t-1 -5t-0.5 -5l-2 -12h68l-39 -197h-199zM618 1085l35 172q58 281 262 322l-18 -94q-14 -3 -25.5 -8.5t-20.5 -15.5t-16 -17.5t-13 -23.5t-9.5 -23t-7.5 -27 t-5.5 -25t-5 -27t-3.5 -24l-3 -12h68l-39 -197h-199z" />
<glyph unicode="&#x201d;" horiz-adv-x="739" d="M272 1085l19 95q14 3 25.5 8.5t20.5 15.5t16 17t13 23t9.5 23t7.5 27l5 25t5 27.5t4 23.5l2 12h-67l39 197h198l-34 -172q-58 -281 -263 -322zM618 1085l19 95q14 3 25.5 8.5t20.5 15.5t16 17t13 23t9.5 23t7.5 27l5 25t5 27.5t4 23.5l2 12h-67l39 197h198l-34 -172 q-58 -281 -263 -322z" />
<glyph unicode="&#x201e;" horiz-adv-x="739" d="M39 -297l18 94q28 6 47.5 24.5t30 44.5t16.5 52.5t11 54.5q1 10 2 15l2 12h-68l39 197h199l-35 -172q-58 -281 -262 -322zM385 -297l18 94q28 6 47.5 24.5t30 44.5t16.5 52.5t11 54.5q0 3 0.5 5t1 5t0.5 5l2 12h-68l39 197h199l-35 -172q-58 -281 -262 -322z" />
<glyph unicode="&#x2022;" d="M395 283l123 618h617l-123 -618h-617z" />
<glyph unicode="&#x2026;" horiz-adv-x="2048" d="M219 0l49 246h246l-49 -246h-246zM901 0l49 246h246l-49 -246h-246zM1583 0l49 246h246l-49 -246h-246z" />
<glyph unicode="&#x202f;" horiz-adv-x="383" />
<glyph unicode="&#x2039;" horiz-adv-x="671" d="M203 604l487 445l88 -86l-377 -359l209 -377l-104 -67z" />
<glyph unicode="&#x203a;" horiz-adv-x="671" d="M111 246l376 358l-208 377l104 68l303 -445l-487 -444z" />
<glyph unicode="&#x205f;" horiz-adv-x="479" />
<glyph unicode="&#x20ac;" d="M113 537l75 122h131q16 98 46 199h-189l76 123h156q113 261 314.5 398t475.5 137q68 0 135 -9q75 -7 191 -37l-35 -182q-18 8 -43 18t-27 11q-121 43 -252 43q-98 0 -193 -32.5t-167 -90.5q-65 -53 -102 -102t-93 -154h707l-76 -123h-682q-28 -97 -43 -199h615l-76 -122 h-543q15 -201 115 -305.5t278 -104.5q82 0 156 14q76 13 211 58l-35 -172l-72 -19q-107 -28 -167 -36.5t-142 -8.5q-297 0 -426 160q-55 65 -87 166.5t-32 206.5v41h-200z" />
<glyph unicode="&#x2122;" horiz-adv-x="1640" d="M270 1358l25 123h666l-25 -123h-246l-123 -619h-174l123 619h-246zM948 739l148 742h211l73 -441h4l242 441h223l-147 -742h-172l112 568l-4 4l-270 -508h-117l-71 405h-4l-91 -469h-137z" />
<glyph unicode="&#xe000;" horiz-adv-x="1085" d="M0 0v1085h1085v-1085h-1085z" />
<glyph unicode="&#xfb03;" horiz-adv-x="1998" d="M143 -395l267 1333h-174l30 147h172l25 99q5 18 14 43.5t29 67t45.5 81.5t65.5 82.5t85.5 73.5t109 51.5t134.5 20.5q66 0 207 -29l-33 -158q-79 39 -182 39q-228 0 -303 -371h493l25 99q5 18 14 43.5t29 67t45.5 81.5t65.5 82.5t85.5 73.5t109 51.5t134.5 20.5 q66 0 207 -29l-33 -158q-79 39 -182 39q-228 0 -303 -371h692l-217 -1085h-196l188 938h-496l-264 -1333h-198l266 1333h-494l-264 -1333h-199zM1858 1284l40 197h197l-39 -197h-198z" />
<glyph unicode="&#xfb04;" horiz-adv-x="1998" d="M143 -395l267 1333h-174l30 147h172l25 99q5 18 14 43.5t29 67t45.5 81.5t65.5 82.5t85.5 73.5t109 51.5t134.5 20.5q66 0 207 -29l-33 -158q-79 39 -182 39q-228 0 -303 -371h493l25 99q5 18 14 43.5t29 67t45.5 81.5t65.5 82.5t85.5 73.5t109 51.5t134.5 20.5 q34 0 72.5 -3.5t102.5 -10.5t108 -11h197l-314 -1579h-198l188 938h-496l-264 -1333h-198l266 1333h-494l-264 -1333h-199zM1325 1085h496l61 314q-128 57 -254 57q-228 0 -303 -371z" />
</font>
</defs>
</svg>
